<?xml version="1.0" encoding="UTF-8"?>
<svg version="1.1" xmlns="http://www.w3.org/2000/svg" width="500" height="500">
<path d="M0 0 C1.12591553 0.00523682 2.25183105 0.01047363 3.41186523 0.01586914 C4.62680664 0.0190918 5.84174805 0.02231445 7.09350586 0.02563477 C8.37290039 0.03401367 9.65229492 0.04239258 10.97045898 0.05102539 C12.2537207 0.05553711 13.53698242 0.06004883 14.85913086 0.06469727 C18.04211921 0.07652994 21.22501661 0.09301471 24.40795898 0.11352539 C27.99850032 7.6778681 31.55144609 15.20998762 34.56420898 23.02758789 C35.32693294 24.913211 36.23514913 26.73836318 37.15795898 28.55102539 C38.40795898 31.11352539 38.40795898 31.11352539 38.40795898 34.11352539 C39.4250293 34.07614258 40.44209961 34.03875977 41.48999023 34.00024414 C45.39903533 34.11326738 48.37501651 34.77229933 52.09545898 35.92602539 C57.75647213 37.63523921 63.4233926 39.13963189 69.17749023 40.50024414 C71.40795898 41.11352539 71.40795898 41.11352539 72.40795898 42.11352539 C75.14229429 42.59605515 76.84237019 42.4613929 79.22436523 40.99633789 C80.45212145 40.08897735 81.66402542 39.15968078 82.85717773 38.20727539 C84.40795898 37.11352539 84.40795898 37.11352539 86.40795898 37.11352539 C86.40795898 36.45352539 86.40795898 35.79352539 86.40795898 35.11352539 C88.62609923 33.38468079 90.84402367 31.76685592 93.15795898 30.17602539 C94.42381508 29.29224171 95.68944586 28.40813522 96.95483398 27.52368164 C97.55465088 27.10892578 98.15446777 26.69416992 98.77246094 26.2668457 C100.12548 25.31272389 101.44212635 24.30725468 102.74780273 23.28930664 C104.40795898 22.11352539 104.40795898 22.11352539 106.22045898 22.23852539 C109.31033141 23.47447436 112.36410763 24.76720652 115.40795898 26.11352539 C115.40795898 26.77352539 115.40795898 27.43352539 115.40795898 28.11352539 C115.96999023 28.22567383 116.53202148 28.33782227 117.11108398 28.45336914 C119.72309006 29.20409878 121.8026722 30.32519915 124.15795898 31.67602539 C124.95717773 32.13106445 125.75639648 32.58610352 126.57983398 33.05493164 C127.18311523 33.40426758 127.78639648 33.75360352 128.40795898 34.11352539 C128.43532605 35.50924591 128.45451888 36.9051276 128.47045898 38.30102539 C128.48206055 39.07833008 128.49366211 39.85563477 128.50561523 40.65649414 C128.40277693 43.24390577 127.91904358 45.57703146 127.40795898 48.11352539 C127.10259191 51.58707585 126.89374295 55.05771874 126.70092773 58.53930664 C126.40795898 62.11352539 126.40795898 62.11352539 125.77124023 64.96899414 C125.18710937 67.64108213 124.84125727 69.4286599 125.40795898 72.11352539 C127.80267575 74.68114589 130.27264919 76.56465169 133.18530273 78.51977539 C133.9187793 79.04571289 134.65225586 79.57165039 135.40795898 80.11352539 C135.40795898 80.77352539 135.40795898 81.43352539 135.40795898 82.11352539 C136.06795898 82.11352539 136.72795898 82.11352539 137.40795898 82.11352539 C137.40795898 82.77352539 137.40795898 83.43352539 137.40795898 84.11352539 C138.06795898 84.11352539 138.72795898 84.11352539 139.40795898 84.11352539 C139.40795898 84.77352539 139.40795898 85.43352539 139.40795898 86.11352539 C140.06795898 86.11352539 140.72795898 86.11352539 141.40795898 86.11352539 C141.40795898 86.77352539 141.40795898 87.43352539 141.40795898 88.11352539 C142.06795898 88.11352539 142.72795898 88.11352539 143.40795898 88.11352539 C143.40795898 88.77352539 143.40795898 89.43352539 143.40795898 90.11352539 C144.06795898 90.11352539 144.72795898 90.11352539 145.40795898 90.11352539 C146.32330198 91.41949246 147.19109873 92.75902397 148.03295898 94.11352539 C150.15933788 97.16559749 150.15933788 97.16559749 153.40405273 98.67993164 C156.25053765 98.67455076 158.96386525 98.20948534 161.73999023 97.60961914 C164.84274847 97.03267874 167.88341777 96.81259346 171.03295898 96.61352539 C177.16851089 96.20578302 183.28717189 95.7006213 189.40795898 95.11352539 C191.40795898 98.11352539 191.40795898 98.11352539 191.40795898 101.11352539 C192.06795898 101.11352539 192.72795898 101.11352539 193.40795898 101.11352539 C194.3671762 102.86304107 195.32529715 104.61315783 196.28295898 106.36352539 C196.81663086 107.33805664 197.35030273 108.31258789 197.90014648 109.31665039 C198.39772461 110.23961914 198.89530273 111.16258789 199.40795898 112.11352539 C199.82303711 112.78899414 200.23811523 113.46446289 200.66577148 114.16040039 C201.74593337 117.00293167 201.44154462 118.23101564 200.40795898 121.11352539 C198.67538676 123.82695582 196.71200069 126.33650798 194.72045898 128.86352539 C193.62342169 130.28386927 192.52835219 131.70573532 191.43530273 133.12915039 C190.91049316 133.81170898 190.38568359 134.49426758 189.8449707 135.19750977 C187.55097413 138.25617186 185.49723128 141.45337403 183.49389648 144.70727539 C183.13553711 145.17133789 182.77717773 145.63540039 182.40795898 146.11352539 C181.74795898 146.11352539 181.08795898 146.11352539 180.40795898 146.11352539 C181.00543945 147.96204102 181.00543945 147.96204102 181.61499023 149.84790039 C189.30261204 173.79509672 189.30261204 173.79509672 189.53295898 181.05102539 C190.55195811 184.61752234 191.07925536 184.91929143 194.15795898 186.73852539 C198.90992491 189.04662313 203.84139762 190.91115177 208.80639648 192.70727539 C213.75740232 194.64042301 218.56933602 196.91415132 223.40795898 199.11352539 C223.40795898 208.35352539 223.40795898 217.59352539 223.40795898 227.11352539 C208.54188756 234.0778111 208.54188756 234.0778111 203.53295898 236.30102539 C202.85233398 236.6168457 202.17170898 236.93266602 201.47045898 237.25805664 C199.40795898 238.11352539 199.40795898 238.11352539 196.97045898 238.75024414 C194.2806811 239.56493648 192.54574894 240.27538382 190.40795898 242.11352539 C188.90452661 245.96119863 188.38702882 249.85308601 187.78979492 253.92602539 C187.06544506 258.07575349 185.8947321 262.11633347 184.78295898 266.17602539 C184.15363989 268.50260603 183.52803145 270.82936366 182.92382812 273.16259766 C182.50399863 274.75032008 182.03530981 276.32506059 181.55249023 277.89477539 C181.1907694 280.2178748 181.1907694 280.2178748 182.70874023 282.29711914 C183.70454102 283.41280273 183.70454102 283.41280273 184.72045898 284.55102539 C188.32508012 288.78087285 191.67576586 293.09774794 194.90795898 297.61352539 C195.57565308 298.53089478 195.57565308 298.53089478 196.25683594 299.46679688 C199.40795898 303.87243645 199.40795898 303.87243645 199.40795898 306.11352539 C200.06795898 306.11352539 200.72795898 306.11352539 201.40795898 306.11352539 C200.90859099 311.69418178 198.75275278 315.57678632 195.97045898 320.30102539 C195.5624707 321.01194336 195.15448242 321.72286133 194.73413086 322.45532227 C193.03264205 325.40586485 191.29844201 328.27780086 189.40795898 331.11352539 C187.41967773 331.44165039 187.41967773 331.44165039 185.09545898 331.36352539 C184.33620117 331.34805664 183.57694336 331.33258789 182.79467773 331.31665039 C180.40795898 331.11352539 180.40795898 331.11352539 178.03686523 330.62915039 C173.70343299 329.77920529 169.32223457 329.65170215 164.91967773 329.39868164 C161.9829151 329.16021259 159.33567606 328.6773293 156.47045898 328.05102539 C154.39343022 327.66487009 154.39343022 327.66487009 152.40795898 328.11352539 C150.17430123 330.00354349 148.53481022 331.96233327 146.81811523 334.32836914 C146.35276367 334.9174707 145.88741211 335.50657227 145.40795898 336.11352539 C144.74795898 336.11352539 144.08795898 336.11352539 143.40795898 336.11352539 C143.40795898 336.77352539 143.40795898 337.43352539 143.40795898 338.11352539 C142.74795898 338.11352539 142.08795898 338.11352539 141.40795898 338.11352539 C141.16045898 338.73227539 140.91295898 339.35102539 140.65795898 339.98852539 C139.20167259 342.46421226 138.02983392 343.06477542 135.40795898 344.11352539 C135.40795898 344.77352539 135.40795898 345.43352539 135.40795898 346.11352539 C134.74795898 346.11352539 134.08795898 346.11352539 133.40795898 346.11352539 C133.40795898 346.77352539 133.40795898 347.43352539 133.40795898 348.11352539 C131.94702148 349.62133789 131.94702148 349.62133789 130.03295898 351.23852539 C129.40647461 351.77735352 128.77999023 352.31618164 128.13452148 352.87133789 C126.40795898 354.11352539 126.40795898 354.11352539 124.40795898 354.11352539 C124.54073242 354.67297852 124.67350586 355.23243164 124.81030273 355.80883789 C126.21171042 362.17143338 126.80509766 368.41239967 127.16186523 374.91430664 C127.32197943 377.992777 127.32197943 377.992777 127.93530273 380.46899414 C129.35022459 388.38554039 129.35022459 388.38554039 128.40795898 392.11352539 C126.03192525 394.63711536 123.24109349 396.02449782 120.15795898 397.55102539 C119.3806543 397.97061523 118.60334961 398.39020508 117.80249023 398.82250977 C115.68709092 399.95614683 113.55664751 401.04464919 111.40795898 402.11352539 C110.74570312 402.48614502 110.08344727 402.85876465 109.40112305 403.24267578 C107.40795898 404.11352539 107.40795898 404.11352539 103.40795898 404.11352539 C103.40795898 403.45352539 103.40795898 402.79352539 103.40795898 402.11352539 C102.7131543 401.88149414 102.01834961 401.64946289 101.30249023 401.41040039 C97.82988233 399.85452209 95.04729599 397.71881633 92.09545898 395.36352539 C91.5244043 394.91904053 90.95334961 394.47455566 90.36499023 394.01660156 C87.86750415 392.07179728 85.3973119 390.10471226 82.95874023 388.08618164 C82.28198242 387.53833008 81.60522461 386.99047852 80.90795898 386.42602539 C80.34077148 385.9477832 79.77358398 385.46954102 79.18920898 384.97680664 C75.43527838 383.15746747 70.32072271 385.64468961 66.47827148 386.70727539 C65.35291992 387.01536133 64.22756836 387.32344727 63.06811523 387.64086914 C60.71860626 388.28730863 58.3696428 388.93573421 56.02124023 389.58618164 C54.89331055 389.89426758 53.76538086 390.20235352 52.60327148 390.51977539 C51.52271484 390.8156958 50.4421582 391.11161621 49.32885742 391.41650391 C46.91181445 391.99328907 44.77164886 392.29128719 42.30639648 392.42211914 C39.13540558 392.83937666 39.13540558 392.83937666 37.43920898 395.92993164 C36.90093793 397.16687785 36.39208066 398.41689956 35.90795898 399.67602539 C35.62807129 400.33626709 35.34818359 400.99650879 35.05981445 401.67675781 C34.46530981 403.08271668 33.88210473 404.49349821 33.30932617 405.90844727 C32.08854355 408.8949339 30.78207146 411.84092002 29.47631836 414.79101562 C28.57161982 416.83852823 27.67938669 418.89102237 26.79077148 420.94555664 C26.03190131 422.6840982 25.2562998 424.41684376 24.40795898 426.11352539 C15.16795898 426.11352539 5.92795898 426.11352539 -3.59204102 426.11352539 C-5.35547852 421.84415039 -5.35547852 421.84415039 -7.15454102 417.48852539 C-7.89521922 415.74588588 -8.63928114 414.00467454 -9.38891602 412.26586914 C-10.74058815 409.12922205 -12.04308468 405.98242582 -13.29516602 402.80493164 C-15.77310254 396.39283862 -15.77310254 396.39283862 -20.73657227 392.02368164 C-23.25992581 391.56059444 -23.25992581 391.56059444 -26.01782227 391.45727539 C-31.0091972 390.97723059 -35.6091435 389.53670758 -40.40454102 388.11352539 C-41.31220215 387.85120117 -42.21986328 387.58887695 -43.1550293 387.31860352 C-47.66748598 386.00861609 -52.14752233 384.64155826 -56.59204102 383.11352539 C-56.59204102 383.77352539 -56.59204102 384.43352539 -56.59204102 385.11352539 C-58.21704102 386.41821289 -58.21704102 386.41821289 -60.59204102 387.98852539 C-64.03753387 390.30192773 -67.36298782 392.69318179 -70.60766602 395.27758789 C-71.65567383 396.10154053 -71.65567383 396.10154053 -72.72485352 396.94213867 C-74.12096676 398.0442825 -75.50675336 399.1596528 -76.88110352 400.28881836 C-81.76862423 404.10538283 -81.76862423 404.10538283 -85.75219727 404.14477539 C-88.70670907 403.07188527 -91.13929108 401.81638427 -93.77954102 400.11352539 C-96.4489577 398.40772302 -98.57539683 397.11907345 -101.59204102 396.11352539 C-101.59204102 395.45352539 -101.59204102 394.79352539 -101.59204102 394.11352539 C-102.21079102 393.96915039 -102.82954102 393.82477539 -103.46704102 393.67602539 C-105.59204102 393.11352539 -105.59204102 393.11352539 -107.59204102 392.11352539 C-107.53145508 391.48188477 -107.47086914 390.85024414 -107.40844727 390.19946289 C-106.78698654 383.5641745 -106.29367669 376.92868981 -105.87329102 370.27758789 C-105.62428743 367.47629752 -105.19576806 364.85564441 -104.59204102 362.11352539 C-103.77812301 357.99668147 -103.77812301 357.99668147 -104.59204102 354.11352539 C-107.03226838 351.68184523 -109.58022919 349.74676086 -112.40454102 347.77758789 C-113.48735352 346.95387695 -113.48735352 346.95387695 -114.59204102 346.11352539 C-114.59204102 345.45352539 -114.59204102 344.79352539 -114.59204102 344.11352539 C-115.25204102 344.11352539 -115.91204102 344.11352539 -116.59204102 344.11352539 C-116.59204102 343.45352539 -116.59204102 342.79352539 -116.59204102 342.11352539 C-117.25204102 342.11352539 -117.91204102 342.11352539 -118.59204102 342.11352539 C-118.59204102 341.45352539 -118.59204102 340.79352539 -118.59204102 340.11352539 C-119.25204102 340.11352539 -119.91204102 340.11352539 -120.59204102 340.11352539 C-120.59204102 339.45352539 -120.59204102 338.79352539 -120.59204102 338.11352539 C-121.25204102 338.11352539 -121.91204102 338.11352539 -122.59204102 338.11352539 C-123.78751436 336.44630889 -124.94865679 334.75438673 -126.09204102 333.05102539 C-128.81909374 329.3533082 -128.81909374 329.3533082 -132.84985352 327.63696289 C-135.48382107 327.95860249 -138.002156 328.53602709 -140.59204102 329.11352539 C-143.02706606 329.31311761 -145.46508781 329.47842506 -147.90454102 329.61352539 C-151.90002414 329.864082 -155.68149361 330.26537686 -159.59204102 331.11352539 C-162.80649278 331.75641574 -165.41586323 332.0596209 -168.59204102 331.11352539 C-171.32150253 328.15869549 -172.85237611 324.71233769 -174.59204102 321.11352539 C-175.73544479 319.15377253 -176.88122474 317.19540382 -178.02954102 315.23852539 C-180.67468942 310.69072638 -180.67468942 310.69072638 -180.32055664 308.2175293 C-178.91282345 304.15189772 -176.13612347 300.83947015 -173.65454102 297.36352539 C-172.82792969 296.17436523 -172.82792969 296.17436523 -171.98461914 294.96118164 C-171.45416992 294.21223633 -170.9237207 293.46329102 -170.37719727 292.69165039 C-169.89130127 292.00490234 -169.40540527 291.3181543 -168.90478516 290.6105957 C-168.47157959 290.1165625 -168.03837402 289.6225293 -167.59204102 289.11352539 C-166.93204102 289.11352539 -166.27204102 289.11352539 -165.59204102 289.11352539 C-165.32391602 288.37102539 -165.05579102 287.62852539 -164.77954102 286.86352539 C-163.59204102 284.11352539 -163.59204102 284.11352539 -161.96704102 282.11352539 C-160.14705716 279.46627614 -160.15810072 278.2957542 -160.59204102 275.11352539 C-161.0393457 273.94563477 -161.48665039 272.77774414 -161.94750977 271.57446289 C-163.77504114 266.801125 -165.04982975 261.94452184 -166.27954102 256.98852539 C-166.50448242 256.12098633 -166.72942383 255.25344727 -166.96118164 254.35961914 C-168.09148618 249.84527212 -168.87676433 245.80761241 -168.59204102 241.11352539 C-169.15020508 240.99493164 -169.70836914 240.87633789 -170.28344727 240.75415039 C-172.86511206 240.03774933 -175.10954456 239.0134786 -177.52954102 237.86352539 C-182.78337309 235.42676145 -188.11924126 233.33451213 -193.54907227 231.32446289 C-196.66369567 230.0850107 -199.61574733 228.65283423 -202.59204102 227.11352539 C-202.64987142 222.65524613 -202.68557956 218.19706259 -202.71704102 213.73852539 C-202.73379883 212.46750977 -202.75055664 211.19649414 -202.76782227 209.88696289 C-202.77426758 208.67524414 -202.78071289 207.46352539 -202.78735352 206.21508789 C-202.80306396 204.53406982 -202.80306396 204.53406982 -202.8190918 202.8190918 C-202.59204102 200.11352539 -202.59204102 200.11352539 -200.59204102 198.11352539 C-198.7302347 197.40265389 -196.86604982 196.69739769 -194.99047852 196.02368164 C-189.37049781 193.89101795 -183.96024673 191.21648414 -178.51391602 188.67993164 C-177.52907227 188.22489258 -176.54422852 187.76985352 -175.52954102 187.30102539 C-174.18182617 186.67260742 -174.18182617 186.67260742 -172.80688477 186.03149414 C-170.59204102 185.11352539 -170.59204102 185.11352539 -168.59204102 185.11352539 C-168.55336914 184.30915039 -168.55336914 184.30915039 -168.51391602 183.48852539 C-167.80262829 173.65982233 -165.49191244 163.58546462 -161.84204102 154.42602539 C-160.59077005 151.11015734 -160.12749155 149.57239913 -160.59204102 146.11352539 C-162.021491 143.90490799 -163.42147173 141.99496193 -165.09204102 139.98852539 C-166.0072568 138.84491615 -166.92130024 137.7003678 -167.83422852 136.55493164 C-168.29539063 135.98274902 -168.75655273 135.41056641 -169.23168945 134.82104492 C-171.2920944 132.23481517 -173.25831157 129.59031866 -175.21704102 126.92602539 C-176.19543945 125.60538086 -176.19543945 125.60538086 -177.19360352 124.25805664 C-178.59204102 122.11352539 -178.59204102 122.11352539 -178.59204102 120.11352539 C-179.25204102 120.11352539 -179.91204102 120.11352539 -180.59204102 120.11352539 C-179.17405966 110.83825912 -172.85507042 102.67213145 -167.59204102 95.11352539 C-166.96040039 95.17411133 -166.32875977 95.23469727 -165.67797852 95.29711914 C-159.01017564 95.92162517 -152.34242188 96.41406022 -145.65844727 96.83227539 C-143.15375769 97.06200488 -141.00424082 97.46822353 -138.59204102 98.11352539 C-135.85326138 98.48796792 -133.31623705 98.6404275 -130.59204102 98.11352539 C-128.18797718 95.73509962 -128.18797718 95.73509962 -126.59204102 93.11352539 C-125.93204102 93.11352539 -125.27204102 93.11352539 -124.59204102 93.11352539 C-124.33156982 92.52780762 -124.07109863 91.94208984 -123.80273438 91.33862305 C-122.51423449 88.97052707 -121.12975151 87.40767027 -119.22094727 85.51196289 C-118.56416992 84.85711914 -117.90739258 84.20227539 -117.23071289 83.52758789 C-116.54557617 82.85469727 -115.86043945 82.18180664 -115.15454102 81.48852539 C-114.47327148 80.80790039 -113.79200195 80.12727539 -113.09008789 79.42602539 C-110.33591978 76.69613496 -107.83028191 74.27235265 -104.59204102 72.11352539 C-104.02531498 65.33642654 -105.18184013 58.63773192 -106.09204102 51.92602539 C-106.37616165 49.80791889 -106.65751381 47.68943877 -106.93579102 45.57055664 C-107.12431641 44.17800659 -107.12431641 44.17800659 -107.31665039 42.75732422 C-107.58695776 40.16232551 -107.76808951 37.71814749 -107.59204102 35.11352539 C-105.79125977 33.30493164 -105.79125977 33.30493164 -103.27954102 31.67602539 C-102.37333008 31.08821289 -101.46711914 30.50040039 -100.53344727 29.89477539 C-87.68414628 22.11352539 -87.68414628 22.11352539 -82.59204102 22.11352539 C-82.59204102 22.77352539 -82.59204102 23.43352539 -82.59204102 24.11352539 C-81.54983398 24.46157227 -81.54983398 24.46157227 -80.48657227 24.81665039 C-77.01383899 26.37258487 -74.23176291 28.5086216 -71.27954102 30.86352539 C-70.42078369 31.53025269 -70.42078369 31.53025269 -69.54467773 32.21044922 C-67.05781153 34.14315769 -64.61072677 36.09760108 -62.21313477 38.14086914 C-58.31269113 41.4004148 -58.31269113 41.4004148 -53.40454102 42.23852539 C-48.92798998 40.91757591 -44.46140995 39.5717614 -40.01000977 38.16821289 C-25.19080006 33.59542818 -25.19080006 33.59542818 -17.59204102 34.11352539 C-17.22079102 32.62852539 -17.22079102 32.62852539 -16.84204102 31.11352539 C-15.84900684 27.63443363 -14.40324324 24.61990316 -12.73266602 21.42211914 C-11.3673353 18.65872717 -10.19968503 15.8398703 -9.02954102 12.98852539 C-3.76058829 0.16470505 -3.76058829 0.16470505 0 0 Z M-76.02954102 89.48852539 C-76.68744629 89.91762207 -77.34535156 90.34671875 -78.02319336 90.78881836 C-79.58510142 91.84143598 -81.09472584 92.97089338 -82.59204102 94.11352539 C-82.59204102 94.77352539 -82.59204102 95.43352539 -82.59204102 96.11352539 C-83.40415039 96.4519043 -83.40415039 96.4519043 -84.23266602 96.79711914 C-87.31822069 98.51869518 -89.77335368 100.78247583 -92.34204102 103.17602539 C-92.86701172 103.66192139 -93.39198242 104.14781738 -93.93286133 104.6484375 C-98.42103829 108.8545593 -102.90272553 113.17635319 -106.59204102 118.11352539 C-106.59204102 118.77352539 -106.59204102 119.43352539 -106.59204102 120.11352539 C-107.25204102 120.11352539 -107.91204102 120.11352539 -108.59204102 120.11352539 C-110.21840896 122.22565163 -111.69821779 124.32445427 -113.15454102 126.55102539 C-113.59709229 127.22552734 -114.03964355 127.9000293 -114.49560547 128.5949707 C-136.56518226 162.81441787 -145.94011582 202.95207438 -137.81469727 243.25415039 C-136.87040942 247.25825508 -135.79307376 251.18055323 -134.59204102 255.11352539 C-134.36419922 255.87600586 -134.13635742 256.63848633 -133.90161133 257.42407227 C-128.69734747 274.48745785 -120.79310125 292.78103852 -108.59204102 306.11352539 C-107.93204102 306.11352539 -107.27204102 306.11352539 -106.59204102 306.11352539 C-106.33914307 306.85465576 -106.08624512 307.59578613 -105.82568359 308.359375 C-104.5076887 311.30184491 -103.13807409 312.92748508 -100.85375977 315.17993164 C-100.11577148 315.91276367 -99.3777832 316.6455957 -98.61743164 317.40063477 C-97.84592773 318.15151367 -97.07442383 318.90239258 -96.27954102 319.67602539 C-95.51963867 320.43077148 -94.75973633 321.18551758 -93.97680664 321.96313477 C-88.10075914 328.73997685 -88.10075914 328.73997685 -80.59204102 332.11352539 C-80.59204102 332.77352539 -80.59204102 333.43352539 -80.59204102 334.11352539 C-78.14854665 335.93009067 -75.71541023 337.60085354 -73.15454102 339.23852539 C-72.38537354 339.730625 -71.61620605 340.22272461 -70.82373047 340.72973633 C-59.84388873 347.60878117 -48.34278151 352.64997158 -36.15454102 356.98852539 C-34.94834106 357.4182666 -34.94834106 357.4182666 -33.71777344 357.85668945 C5.30944424 371.2099032 46.59793456 363.54445173 82.7097168 345.94799805 C84.61380768 345.01237662 86.51432595 344.07015348 88.40795898 343.11352539 C88.40795898 342.45352539 88.40795898 341.79352539 88.40795898 341.11352539 C89.06795898 340.88665039 89.72795898 340.65977539 90.40795898 340.42602539 C94.29454526 338.72564389 98.04475716 336.71729455 101.40795898 334.11352539 C101.40795898 333.45352539 101.40795898 332.79352539 101.40795898 332.11352539 C102.10920898 331.88665039 102.81045898 331.65977539 103.53295898 331.42602539 C107.14924434 329.77511251 109.49565875 327.82264189 112.40795898 325.11352539 C112.40795898 324.45352539 112.40795898 323.79352539 112.40795898 323.11352539 C113.06795898 323.11352539 113.72795898 323.11352539 114.40795898 323.11352539 C114.40795898 322.45352539 114.40795898 321.79352539 114.40795898 321.11352539 C115.06795898 321.11352539 115.72795898 321.11352539 116.40795898 321.11352539 C116.40795898 320.45352539 116.40795898 319.79352539 116.40795898 319.11352539 C117.06795898 319.11352539 117.72795898 319.11352539 118.40795898 319.11352539 C118.40795898 318.45352539 118.40795898 317.79352539 118.40795898 317.11352539 C119.06795898 317.11352539 119.72795898 317.11352539 120.40795898 317.11352539 C120.40795898 316.45352539 120.40795898 315.79352539 120.40795898 315.11352539 C121.06795898 315.11352539 121.72795898 315.11352539 122.40795898 315.11352539 C124.22424674 313.16976585 124.22424674 313.16976585 126.03295898 310.73852539 C126.66459961 309.92641602 127.29624023 309.11430664 127.94702148 308.27758789 C129.59446707 306.2724266 129.59446707 306.2724266 129.40795898 304.11352539 C130.06795898 304.11352539 130.72795898 304.11352539 131.40795898 304.11352539 C133.23300912 301.70791953 133.23300912 301.70791953 135.03295898 298.73852539 C135.66459961 297.74079102 136.29624023 296.74305664 136.94702148 295.71508789 C138.57117216 293.32016708 138.57117216 293.32016708 138.40795898 291.11352539 C139.06795898 291.11352539 139.72795898 291.11352539 140.40795898 291.11352539 C146.05256601 279.63369288 151.47895158 268.3098192 155.40795898 256.11352539 C155.74698242 255.19313477 156.08600586 254.27274414 156.43530273 253.32446289 C157.69887171 249.15316291 158.33425164 244.98136506 158.97045898 240.67602539 C159.15898438 239.44529297 159.15898438 239.44529297 159.35131836 238.18969727 C159.59788778 236.57215023 159.83991369 234.95390336 160.07714844 233.33496094 C160.35892921 231.44276663 160.66949772 229.55489591 160.98608398 227.66821289 C165.20148261 192.14957634 154.25897412 157.93227728 135.53295898 128.17602539 C135.15155762 127.565896 134.77015625 126.9557666 134.37719727 126.32714844 C133.44354623 124.88471004 132.43242744 123.49294454 131.40795898 122.11352539 C130.74795898 122.11352539 130.08795898 122.11352539 129.40795898 122.11352539 C129.03670898 121.26661133 129.03670898 121.26661133 128.65795898 120.40258789 C123.90559334 111.6998183 112.91986835 99.21670149 103.40795898 96.11352539 C103.40795898 95.45352539 103.40795898 94.79352539 103.40795898 94.11352539 C101.33309133 92.527036 99.26602532 91.05749407 97.09545898 89.61352539 C96.20310547 89.00831055 96.20310547 89.00831055 95.29272461 88.39086914 C90.26902742 84.52730643 90.26902742 84.52730643 84.40795898 83.11352539 C84.40795898 82.45352539 84.40795898 81.79352539 84.40795898 81.11352539 C30.29580655 55.42829037 -25.21624518 56.22607221 -76.02954102 89.48852539 Z " fill="#050505" transform="translate(239.592041015625,36.886474609375)"/>
<path d="M0 0 C3.08987242 1.23594897 6.14364865 2.52868113 9.1875 3.875 C8.1875 6.875 8.1875 6.875 6.25 7.9375 C5.569375 8.246875 4.88875 8.55625 4.1875 8.875 C3.5275 9.535 2.8675 10.195 2.1875 10.875 C1.1975 10.875 0.2075 10.875 -0.8125 10.875 C-1.080625 11.473125 -1.34875 12.07125 -1.625 12.6875 C-2.81167406 14.87347854 -3.90849113 16.28832594 -5.8125 17.875 C-6.4725 17.875 -7.1325 17.875 -7.8125 17.875 C-7.8125 18.535 -7.8125 19.195 -7.8125 19.875 C-8.4725 19.875 -9.1325 19.875 -9.8125 19.875 C-4.91025606 25.63709966 0.24492538 31.05891529 5.625 36.375 C6.35654297 37.10203125 7.08808594 37.8290625 7.84179688 38.578125 C9.62139824 40.34609499 11.40330918 42.11166378 13.1875 43.875 C10.1875 43.875 10.1875 43.875 8.01098633 42.0390625 C7.18880615 41.20117188 6.36662598 40.36328125 5.51953125 39.5 C4.62685547 38.59765625 3.73417969 37.6953125 2.81445312 36.765625 C1.87613843 35.8022427 0.9379895 34.83869892 0 33.875 C-0.94917769 32.91077654 -1.89903956 31.94722608 -2.84960938 30.984375 C-5.17740319 28.62113254 -7.49793133 26.25118518 -9.8125 23.875 C-14.06915577 24.8845333 -14.06915577 24.8845333 -17.00390625 27.77734375 C-17.27074219 28.46957031 -17.53757812 29.16179687 -17.8125 29.875 C-22.06053142 35.43583413 -27.16731654 40.31690668 -32.16772461 45.19360352 C-34.83166459 47.77303143 -34.83166459 47.77303143 -36.8125 50.875 C-36.1525 50.875 -35.4925 50.875 -34.8125 50.875 C-34.8125 51.535 -34.8125 52.195 -34.8125 52.875 C-40.04247637 51.36138331 -45.22270086 49.74867423 -50.37158203 47.9765625 C-63.41434244 43.51413378 -76.13933437 42.11294891 -89.8125 40.875 C-89.8125 40.545 -89.8125 40.215 -89.8125 39.875 C-84.8625 39.38 -84.8625 39.38 -79.8125 38.875 C-80.4725 38.25625 -81.1325 37.6375 -81.8125 37 C-83.8125 34.875 -83.8125 34.875 -83.8125 32.875 C-84.68648438 32.49214844 -84.68648438 32.49214844 -85.578125 32.1015625 C-88.02638223 30.75758913 -89.62993248 29.25689704 -91.5625 27.25 C-92.17609375 26.61835937 -92.7896875 25.98671875 -93.421875 25.3359375 C-93.88078125 24.85382813 -94.3396875 24.37171875 -94.8125 23.875 C-98.02774305 25.28344718 -100.13433868 26.97844786 -102.5625 29.5 C-103.48289063 30.44746094 -103.48289063 30.44746094 -104.421875 31.4140625 C-104.88078125 31.89617187 -105.3396875 32.37828125 -105.8125 32.875 C-106.4725 32.545 -107.1325 32.215 -107.8125 31.875 C-107.10222656 31.17632812 -106.39195312 30.47765625 -105.66015625 29.7578125 C-104.74105469 28.84773438 -103.82195312 27.93765625 -102.875 27 C-101.50021484 25.64261719 -101.50021484 25.64261719 -100.09765625 24.2578125 C-97.80062373 22.09817745 -97.80062373 22.09817745 -96.8125 19.875 C-97.4725 19.875 -98.1325 19.875 -98.8125 19.875 C-98.4825 19.215 -98.1525 18.555 -97.8125 17.875 C-97.049375 17.771875 -96.28625 17.66875 -95.5 17.5625 C-91.87178125 16.63435102 -91.01642406 14.83652296 -88.8125 11.875 C-87.16247172 10.52113064 -85.4950613 9.18821858 -83.8125 7.875 C-82.12634218 6.22805515 -80.45679829 4.56373879 -78.8125 2.875 C-76.8125 0.875 -76.8125 0.875 -74.1875 0.75 C-73.40375 0.79125 -72.62 0.8325 -71.8125 0.875 C-71.13841692 2.14191507 -70.47349503 3.41370749 -69.8125 4.6875 C-69.44125 5.39519531 -69.07 6.10289063 -68.6875 6.83203125 C-67.8125 8.875 -67.8125 8.875 -67.8125 11.875 C-66.79542969 11.83761719 -65.77835937 11.80023438 -64.73046875 11.76171875 C-60.82142366 11.87474199 -57.84544248 12.53377394 -54.125 13.6875 C-48.46398685 15.39671382 -42.79706639 16.90110649 -37.04296875 18.26171875 C-34.8125 18.875 -34.8125 18.875 -33.8125 19.875 C-31.07816469 20.35752976 -29.37808879 20.22286751 -26.99609375 18.7578125 C-25.76833754 17.85045196 -24.55643356 16.92115539 -23.36328125 15.96875 C-21.8125 14.875 -21.8125 14.875 -19.8125 14.875 C-19.8125 14.215 -19.8125 13.555 -19.8125 12.875 C-17.59435976 11.1461554 -15.37643531 9.52833053 -13.0625 7.9375 C-11.79664391 7.05371632 -10.53101313 6.16960983 -9.265625 5.28515625 C-8.66580811 4.87040039 -8.06599121 4.45564453 -7.44799805 4.02832031 C-6.09497898 3.07419849 -4.77833264 2.06872928 -3.47265625 1.05078125 C-1.8125 -0.125 -1.8125 -0.125 0 0 Z " fill="#050505" transform="translate(345.8125,59.125)"/>
<path d="M0 0 C0 0.66 0 1.32 0 2 C0.68835938 2.22816406 1.37671875 2.45632812 2.0859375 2.69140625 C5.66583901 4.29900277 8.5689289 6.51985472 11.625 8.9375 C12.19734375 9.38029297 12.7696875 9.82308594 13.359375 10.27929688 C16.05832801 12.38510788 18.66492268 14.49103394 21 17 C20.2575 16.814375 19.515 16.62875 18.75 16.4375 C16.05009037 16.00796892 14.55368923 16.14877026 12 17 C11.20046862 20.28696233 10.90341064 21.71023192 12 25 C13.3153341 25.70151152 14.65117592 26.36525925 16 27 C17.75 28.5 17.75 28.5 19 30 C19 30.66 19 31.32 19 32 C19.639375 32.268125 20.27875 32.53625 20.9375 32.8125 C23 34 23 34 24 37 C24.598125 37.28875 25.19625 37.5775 25.8125 37.875 C28.6872613 39.35344867 30.04799784 41.46239719 32 44 C32.99 44.495 32.99 44.495 34 45 C34 45.66 34 46.32 34 47 C34.99 47.33 35.98 47.66 37 48 C37 48.66 37 49.32 37 50 C38.485 50.495 38.485 50.495 40 51 C38.35 51.33 36.7 51.66 35 52 C34.60361328 51.2776416 34.20722656 50.5552832 33.79882812 49.81103516 C31.86990229 46.79669584 29.76326913 44.53641701 27.21875 42.0234375 C26.29449219 41.105625 25.37023437 40.1878125 24.41796875 39.2421875 C23.44543335 38.28633535 22.47277591 37.33060737 21.5 36.375 C20.52688058 35.41192611 19.55421988 34.44838848 18.58203125 33.484375 C16.79718295 31.71695199 15.01028891 29.95159081 13.22070312 28.18896484 C11.47313413 26.4663721 9.73193731 24.73827367 8 23 C4.92861182 23.63402615 4.92861182 23.63402615 4.10742188 25.75097656 C3.74197266 26.4931543 3.37652344 27.23533203 3 28 C1.47765284 29.70791386 -0.10308552 31.36445558 -1.71875 32.984375 C-3.11673828 34.38623047 -3.11673828 34.38623047 -4.54296875 35.81640625 C-5.02813965 36.2973877 -5.51331055 36.77836914 -6.01318359 37.27392578 C-7.50206339 38.75204848 -8.97991651 40.24059911 -10.45703125 41.73046875 C-11.38902344 42.65988281 -12.32101563 43.58929688 -13.28125 44.546875 C-14.13783203 45.40120117 -14.99441406 46.25552734 -15.87695312 47.13574219 C-18 49 -18 49 -20 49 C-20.28875 49.61875 -20.5775 50.2375 -20.875 50.875 C-22 53 -22 53 -24 55 C-24.99 54.67 -25.98 54.34 -27 54 C-26.175 53.505 -25.35 53.01 -24.5 52.5 C-21.64214739 50.18653125 -21.64214739 50.18653125 -21.75 46.60546875 C-21.92928454 40.96953126 -22.74304599 35.39418338 -23.5 29.8125 C-23.78412063 27.6943935 -24.0654728 25.57591338 -24.34375 23.45703125 C-24.53227539 22.0644812 -24.53227539 22.0644812 -24.72460938 20.64379883 C-24.99491675 18.04880012 -25.1760485 15.6046221 -25 13 C-23.19921875 11.19140625 -23.19921875 11.19140625 -20.6875 9.5625 C-19.78128906 8.9746875 -18.87507812 8.386875 -17.94140625 7.78125 C-5.09210526 0 -5.09210526 0 0 0 Z " fill="#070707" transform="translate(157,59)"/>
<path d="M0 0 C-0.268125 0.721875 -0.53625 1.44375 -0.8125 2.1875 C-0.874375 3.115625 -0.93625 4.04375 -1 5 C1.37505218 7.70848923 1.37505218 7.70848923 4 10 C4 10.66 4 11.32 4 12 C4.58644287 12.2582959 5.17288574 12.5165918 5.77709961 12.78271484 C8.17523543 14.09596089 9.68535432 15.50098146 11.56640625 17.4765625 C12.21673828 18.146875 12.86707031 18.8171875 13.53710938 19.5078125 C14.89313999 20.92530255 16.24729316 22.3445909 17.59960938 23.765625 C18.24865234 24.43335938 18.89769531 25.10109375 19.56640625 25.7890625 C20.15365479 26.40475098 20.74090332 27.02043945 21.34594727 27.65478516 C23.03257204 29.3154795 23.03257204 29.3154795 26 29 C27.39707194 27.74241721 27.39707194 27.74241721 28.75 25.9375 C32.54585064 21.44112757 36.53462624 17.16491217 40.625 12.9375 C41.27049805 12.2458374 41.91599609 11.5541748 42.58105469 10.84155273 C44.32287294 9.05957664 45.958579 7.42969582 48 6 C50.9609375 6.06640625 50.9609375 6.06640625 53 7 C54.67173856 11.43315286 55.32092656 15.33896828 55.5625 20.0625 C55.78453823 24.7514334 55.78453823 24.7514334 56.52734375 29.37109375 C57.94553814 37.25906751 57.94553814 37.25906751 57 41 C54.62396627 43.52358996 51.83313451 44.91097243 48.75 46.4375 C47.97269531 46.85708984 47.19539063 47.27667969 46.39453125 47.70898438 C44.27913193 48.84262144 42.14868852 49.9311238 40 51 C39.00661621 51.55892944 39.00661621 51.55892944 37.99316406 52.12915039 C36 53 36 53 32 53 C32 52.34 32 51.68 32 51 C31.30519531 50.76539063 30.61039062 50.53078125 29.89453125 50.2890625 C26.45311285 48.75644702 23.64098452 46.67175588 20.6875 44.375 C20.13771484 43.95476562 19.58792969 43.53453125 19.02148438 43.1015625 C17.67707832 42.07279961 16.33798587 41.0370991 15 40 C16.61594832 37.95880212 18.2856382 35.95927063 20 34 C20.66 34 21.32 34 22 34 C20.98424386 30.44485352 19.71823053 28.56562608 16.875 26.3125 C15.92625 25.549375 14.9775 24.78625 14 24 C14 23.34 14 22.68 14 22 C13.15115234 21.64228516 13.15115234 21.64228516 12.28515625 21.27734375 C9.51290127 19.7277243 7.64733707 17.83964175 5.4375 15.5625 C4.67308594 14.78003906 3.90867187 13.99757813 3.12109375 13.19140625 C2.42113281 12.46824219 1.72117187 11.74507813 1 11 C0.41347656 10.45214844 -0.17304688 9.90429688 -0.77734375 9.33984375 C-2 8 -2 8 -2 6 C-2.99 5.67 -3.98 5.34 -5 5 C-5 4.34 -5 3.68 -5 3 C-5.66 2.67 -6.32 2.34 -7 2 C-2.25 0 -2.25 0 0 0 Z " fill="#070707" transform="translate(311,388)"/>
<path d="M0 0 C0.63164063 0.06058594 1.26328125 0.12117187 1.9140625 0.18359375 C7.25283227 0.68362262 12.58559532 1.10412218 17.9375 1.4375 C24.37960004 1.87883724 30.6580611 2.80362691 37 4 C34.26430312 8.36247959 31.26410224 12.01007568 27.578125 15.6171875 C27.07327576 16.11920685 26.56842651 16.6212262 26.04827881 17.13845825 C24.45353414 18.72211415 22.85193956 20.29862587 21.25 21.875 C20.15969338 22.95526219 19.0698451 24.0359872 17.98046875 25.1171875 C15.32558666 27.75015952 12.66451897 30.37677662 10 33 C13.12739451 36.13357581 16.26781462 39.25272722 19.42578125 42.35546875 C21.05480558 43.96602641 22.68370884 45.57670653 24.3125 47.1875 C25.14845703 48.00669922 25.98441406 48.82589844 26.84570312 49.66992188 C28.0300293 50.84458008 28.0300293 50.84458008 29.23828125 52.04296875 C29.96055908 52.75477295 30.68283691 53.46657715 31.42700195 54.19995117 C33 56 33 56 33 58 C36.01031744 58.93423645 36.86650268 59.04449911 40 58 C39.34 59.32 38.68 60.64 38 62 C36.68 61.67 35.36 61.34 34 61 C34 60.34 34 59.68 34 59 C33.34 59 32.68 59 32 59 C30.8346869 57.90323473 29.67892632 56.79450536 28.57421875 55.63671875 C27.37175872 54.38651837 26.13943176 53.16497738 24.89453125 51.95703125 C24.16621094 51.24933594 23.43789062 50.54164063 22.6875 49.8125 C21.99011719 49.13832031 21.29273438 48.46414062 20.57421875 47.76953125 C19 46 19 46 19 44 C18.401875 43.731875 17.80375 43.46375 17.1875 43.1875 C15.00152146 42.00082594 13.58667406 40.90400887 12 39 C12 38.34 12 37.68 12 37 C9.27958849 36.24433014 7.4981783 35.86161714 4.75 36.625 C2.74412123 37.9244579 2.74412123 37.9244579 2.25 40.625 C2.12625 41.800625 2.12625 41.800625 2 43 C-3.13632817 38.3452026 -7.23310229 32.80457439 -11 27 C-11 26.34 -11 25.68 -11 25 C-11.66 25 -12.32 25 -13 25 C-11.58201865 15.72473373 -5.2630294 7.55860606 0 0 Z " fill="#070707" transform="translate(72,132)"/>
<path d="M0 0 C0.66 0 1.32 0 2 0 C2 0.66 2 1.32 2 2 C2.5662207 2.24169922 3.13244141 2.48339844 3.71582031 2.73242188 C6.4522274 4.25095817 8.33069338 6.07151881 10.546875 8.28125 C11.39121094 9.12300781 12.23554688 9.96476562 13.10546875 10.83203125 C14.41451172 12.15267578 14.41451172 12.15267578 15.75 13.5 C16.63816406 14.38042969 17.52632812 15.26085937 18.44140625 16.16796875 C19.28058594 17.00972656 20.11976563 17.85148437 20.984375 18.71875 C21.75491211 19.49154297 22.52544922 20.26433594 23.31933594 21.06054688 C25 23 25 23 25 25 C27.33214148 26.20628008 29.49642139 27.1654738 32 28 C32.495 26.515 32.495 26.515 33 25 C34.44103232 23.75547209 35.88756435 22.51580623 37.37890625 21.33203125 C39.24215145 19.84511886 39.24215145 19.84511886 41.6875 17.3125 C44 15 44 15 47 13 C47 17 47 17 45.4609375 18.67578125 C44.77257812 19.21589844 44.08421875 19.75601562 43.375 20.3125 C39.4098018 23.57214692 36.24324139 27.0270293 33 31 C35.25740623 33.33524782 37.2805761 35.18705073 40 37 C37.58598318 38.94902177 35.16614395 40.88953848 32.734375 42.81640625 C31.05876752 44.15449851 29.39834698 45.51224654 27.765625 46.90234375 C22.88390713 50.92313851 22.88390713 50.92313851 19.125 51.25 C15.22669839 49.69067936 11.8030443 47.63297455 8.26953125 45.375 C5.96879465 43.86675485 5.96879465 43.86675485 3 43 C3 42.34 3 41.68 3 41 C2.38125 40.855625 1.7625 40.71125 1.125 40.5625 C-1 40 -1 40 -3 39 C-2.93941406 38.36835938 -2.87882813 37.73671875 -2.81640625 37.0859375 C-2.19494552 30.45064911 -1.70163567 23.81516442 -1.28125 17.1640625 C-1 14 -1 14 -0.47265625 11.38671875 C0.01569068 8.92076857 0.09995619 6.69706462 0.0625 4.1875 C0.04896484 3.00220703 0.04896484 3.00220703 0.03515625 1.79296875 C0.02355469 1.20128906 0.01195312 0.60960937 0 0 Z " fill="#060606" transform="translate(135,390)"/>
<path d="M0 0 C2 3 2 3 2 6 C2.66 6 3.32 6 4 6 C4.95921722 7.74951568 5.91733817 9.49963244 6.875 11.25 C7.40867187 12.22453125 7.94234375 13.1990625 8.4921875 14.203125 C8.98976563 15.12609375 9.48734375 16.0490625 10 17 C10.41507812 17.67546875 10.83015625 18.3509375 11.2578125 19.046875 C12.27546625 21.72491119 11.74839929 23.25603926 11 26 C9.78491211 28.03637695 9.78491211 28.03637695 8.27734375 29.98828125 C7.73916016 30.69404297 7.20097656 31.39980469 6.64648438 32.12695312 C6.08251953 32.84818359 5.51855469 33.56941406 4.9375 34.3125 C4.36966797 35.05306641 3.80183594 35.79363281 3.21679688 36.55664062 C1.81909148 38.37718126 0.41058972 40.18942406 -1 42 C-3.64 40.02 -6.28 38.04 -9 36 C-9.845625 37.03125 -10.69125 38.0625 -11.5625 39.125 C-14.30141142 42.33232383 -17.2303849 45.06326686 -20.484375 47.73828125 C-22.12988553 49.06919162 -22.12988553 49.06919162 -24 51 C-24.66 50.34 -25.32 49.68 -26 49 C-23.45048405 45.77561217 -21.01713739 42.89510704 -17.8125 40.3125 C-14.87245245 38.12328275 -14.87245245 38.12328275 -13 35 C-12.34 35 -11.68 35 -11 35 C-11.495 34.21625 -11.99 33.4325 -12.5 32.625 C-14 30 -14 30 -14 28 C-14.57669434 27.75000244 -15.15338867 27.50000488 -15.74755859 27.24243164 C-18.31087205 25.82852506 -19.99597808 24.21487926 -22.0390625 22.12109375 C-22.78414063 21.36505859 -23.52921875 20.60902344 -24.296875 19.83007812 C-25.44929688 18.64575195 -25.44929688 18.64575195 -26.625 17.4375 C-28.15663169 15.87152109 -29.69038195 14.30761061 -31.2265625 12.74609375 C-31.90283691 12.05185303 -32.57911133 11.3576123 -33.27587891 10.64233398 C-34.91488551 8.92043505 -34.91488551 8.92043505 -37 8 C-37.625 5.9375 -37.625 5.9375 -38 4 C-30.03538778 2.63728396 -22.16295641 1.69952393 -14.09375 1.24609375 C-9.27824247 0.86304201 -4.86418681 -0.43237216 0 0 Z " fill="#0A0A0A" transform="translate(429,132)"/>
<path d="M0 0 C2.31 0 4.62 0 7 0 C4.26430312 4.36247959 1.26410224 8.01007568 -2.421875 11.6171875 C-2.92672424 12.11920685 -3.43157349 12.6212262 -3.95172119 13.13845825 C-5.54646586 14.72211415 -7.14806044 16.29862587 -8.75 17.875 C-9.84030662 18.95526219 -10.9301549 20.0359872 -12.01953125 21.1171875 C-14.67441334 23.75015952 -17.33548103 26.37677662 -20 29 C-16.87260549 32.13357581 -13.73218538 35.25272722 -10.57421875 38.35546875 C-8.94519442 39.96602641 -7.31629116 41.57670653 -5.6875 43.1875 C-4.85154297 44.00669922 -4.01558594 44.82589844 -3.15429688 45.66992188 C-1.9699707 46.84458008 -1.9699707 46.84458008 -0.76171875 48.04296875 C-0.03944092 48.75477295 0.68283691 49.46657715 1.42700195 50.19995117 C3 52 3 52 3 54 C6.01031744 54.93423645 6.86650268 55.04449911 10 54 C9.34 55.32 8.68 56.64 8 58 C6.68 57.67 5.36 57.34 4 57 C4 56.34 4 55.68 4 55 C3.34 55 2.68 55 2 55 C0.8346869 53.90323473 -0.32107368 52.79450536 -1.42578125 51.63671875 C-2.62824128 50.38651837 -3.86056824 49.16497738 -5.10546875 47.95703125 C-5.83378906 47.24933594 -6.56210938 46.54164063 -7.3125 45.8125 C-8.00988281 45.13832031 -8.70726562 44.46414062 -9.42578125 43.76953125 C-11 42 -11 42 -11 40 C-11.598125 39.731875 -12.19625 39.46375 -12.8125 39.1875 C-14.99847854 38.00082594 -16.41332594 36.90400887 -18 35 C-18 34.34 -18 33.68 -18 33 C-20.72041151 32.24433014 -22.5018217 31.86161714 -25.25 32.625 C-27.25587877 33.9244579 -27.25587877 33.9244579 -27.75 36.625 C-27.87375 37.800625 -27.87375 37.800625 -28 39 C-33.13632817 34.3452026 -37.23310229 28.80457439 -41 23 C-41 22.34 -41 21.68 -41 21 C-41.66 21 -42.32 21 -43 21 C-42.42365861 16.24518354 -40.44931479 13.02951788 -38 9 C-37.67 9.66 -37.34 10.32 -37 11 C-37.33 11.66 -37.66 12.32 -38 13 C-37.4225 13.226875 -36.845 13.45375 -36.25 13.6875 C-33.41027692 15.34400513 -32.04775464 17.42567988 -30 20 C-28.16867788 21.60982311 -26.29801409 23.14927029 -24.390625 24.66796875 C-23.70226562 25.32732422 -23.70226562 25.32732422 -23 26 C-23 26.66 -23 27.32 -23 28 C-17.99417163 23.83931148 -13.56417805 19.55191124 -9.4453125 14.50390625 C-8.72988281 13.75947266 -8.72988281 13.75947266 -8 13 C-7.34 13 -6.68 13 -6 13 C-6 12.34 -6 11.68 -6 11 C-4.33333333 9.66666667 -2.66666667 8.33333333 -1 7 C0.75859065 5.06079733 2.36877433 3.05068369 4 1 C2.68 0.67 1.36 0.34 0 0 Z " fill="#131313" transform="translate(102,136)"/>
<path d="M0 0 C0.66 0.33 1.32 0.66 2 1 C2.625 4.0625 2.625 4.0625 3 7 C3.66 7 4.32 7 5 7 C7.55503423 9.353321 9.80920093 11.75380766 11.9375 14.5 C14.34914516 17.42320625 17.0672892 19.60595036 20 22 C22.875 24.6875 22.875 24.6875 25 27 C25 27.66 25 28.32 25 29 C25.66 29 26.32 29 27 29 C27 29.66 27 30.32 27 31 C28.32 31 29.64 31 31 31 C31.268125 30.360625 31.53625 29.72125 31.8125 29.0625 C33 27 33 27 36 26 C36.33 25.34 36.66 24.68 37 24 C38.84104236 26.45264589 40.67147793 28.91300959 42.5 31.375 C43.02464844 32.07367188 43.54929687 32.77234375 44.08984375 33.4921875 C44.58613281 34.1625 45.08242188 34.8328125 45.59375 35.5234375 C46.05458984 36.14138184 46.51542969 36.75932617 46.99023438 37.39599609 C48 39 48 39 48 41 C48.66 41 49.32 41 50 41 C49.5205537 45.21912747 48.83374881 47.79663178 46 51 C42.63797061 49.57390841 40.76324421 47.85651485 38.4375 45.0625 C35.96809867 42.11693957 35.96809867 42.11693957 33.28515625 39.37109375 C32 38 32 38 32 36 C31.34 36 30.68 36 30 36 C30 35.34 30 34.68 30 34 C29.34 34 28.68 34 28 34 C28 34.66 28 35.32 28 36 C27.34 36 26.68 36 26 36 C26 36.66 26 37.32 26 38 C25.34 38 24.68 38 24 38 C24 38.66 24 39.32 24 40 C20.81231119 43.4774787 17.29649537 46.4801883 13.69921875 49.5234375 C11.34614376 51.56817852 9.17391732 53.76732816 7 56 C5.66666667 57.33333333 4.33333333 58.66666667 3 60 C3.33 60.66 3.66 61.32 4 62 C2.02 62.495 2.02 62.495 0 63 C1.41172121 58.51107235 3.86476242 55.70964646 7.15625 52.48046875 C7.65918579 51.97703445 8.16212158 51.47360016 8.68029785 50.95491028 C9.73916426 49.89837459 10.80170146 48.84550641 11.86767578 47.79614258 C13.50348666 46.18406393 15.12542623 44.55892812 16.74609375 42.93164062 C17.77785386 41.90545311 18.81037956 40.88003464 19.84375 39.85546875 C20.33025024 39.3680571 20.81675049 38.88064545 21.31799316 38.37846375 C24.76893214 35 24.76893214 35 27 35 C25.35490397 31.96955994 23.76838497 29.76838497 21.3125 27.3125 C20.549375 26.549375 19.78625 25.78625 19 25 C19 24.34 19 23.68 19 23 C18.42096924 22.74259033 17.84193848 22.48518066 17.24536133 22.2199707 C13.11255218 19.97449421 10.01453563 16.4677994 6.6875 13.1875 C5.93404297 12.47529297 5.18058594 11.76308594 4.40429688 11.02929688 C3.69724609 10.33255859 2.99019531 9.63582031 2.26171875 8.91796875 C1.61162842 8.28656982 0.96153809 7.6551709 0.29174805 7.00463867 C-1 5 -1 5 -0.70385742 2.25512695 C-0.355448 1.13883911 -0.355448 1.13883911 0 0 Z " fill="#111111" transform="translate(391,302)"/>
<path d="M0 0 C0.99 0.66 1.98 1.32 3 2 C1.68 3.32 0.36 4.64 -1 6 C0.32 7.65 1.64 9.3 3 11 C7.31730413 10.52590352 9.33647461 7.96603297 12.25 4.9375 C13.14203125 4.01839844 14.0340625 3.09929687 14.953125 2.15234375 C15.62859375 1.44207031 16.3040625 0.73179687 17 0 C17.495 1.485 17.495 1.485 18 3 C14.37 6.63 10.74 10.26 7 14 C11.38442526 19.25174926 16.00842093 24.13222473 20.875 28.9375 C21.56335938 29.62134766 22.25171875 30.30519531 22.9609375 31.00976562 C24.63833511 32.67551464 26.31803791 34.3388622 28 36 C27.505 36.99 27.505 36.99 27 38 C26.34402832 37.3387915 25.68805664 36.67758301 25.01220703 35.99633789 C22.58028964 33.54739147 20.14614635 31.10070247 17.71044922 28.65551758 C16.6561597 27.59619526 15.60276891 26.53597771 14.55029297 25.47485352 C13.03848143 23.95093039 11.52348098 22.43024216 10.0078125 20.91015625 C9.09660645 19.99371338 8.18540039 19.07727051 7.24658203 18.13305664 C5.19154633 15.97429864 5.19154633 15.97429864 3 15 C2.87625 15.61875 2.7525 16.2375 2.625 16.875 C2 19 2 19 0 21 C-0.99 21 -1.98 21 -3 21 C-3.33 21.99 -3.66 22.98 -4 24 C-4.66 24 -5.32 24 -6 24 C-6.268125 24.61875 -6.53625 25.2375 -6.8125 25.875 C-8 28 -8 28 -11 30 C-11.66 30.99 -12.32 31.98 -13 33 C-17.08605802 26.56136311 -17.08605802 26.56136311 -16.71435547 24.13671875 C-15.34680976 20.04623343 -12.54907216 16.73293383 -10.0625 13.25 C-9.51142578 12.45722656 -8.96035156 11.66445313 -8.39257812 10.84765625 C-7.86212891 10.09871094 -7.33167969 9.34976562 -6.78515625 8.578125 C-6.29926025 7.89137695 -5.81336426 7.20462891 -5.31274414 6.49707031 C-4.87953857 6.00303711 -4.44633301 5.50900391 -4 5 C-3.34 5 -2.68 5 -2 5 C-1.34 3.35 -0.68 1.7 0 0 Z " fill="#151515" transform="translate(76,321)"/>
<path d="M0 0 C0 0.66 0 1.32 0 2 C0.68835938 2.22816406 1.37671875 2.45632812 2.0859375 2.69140625 C5.66583901 4.29900277 8.5689289 6.51985472 11.625 8.9375 C12.19734375 9.38029297 12.7696875 9.82308594 13.359375 10.27929688 C16.05832801 12.38510788 18.66492268 14.49103394 21 17 C20.2575 16.814375 19.515 16.62875 18.75 16.4375 C16.05009037 16.00796892 14.55368923 16.14877026 12 17 C11.20046862 20.28696233 10.90341064 21.71023192 12 25 C13.3153341 25.70151152 14.65117592 26.36525925 16 27 C17.75 28.5 17.75 28.5 19 30 C19 30.66 19 31.32 19 32 C19.639375 32.268125 20.27875 32.53625 20.9375 32.8125 C23 34 23 34 24 37 C24.598125 37.28875 25.19625 37.5775 25.8125 37.875 C28.6872613 39.35344867 30.04799784 41.46239719 32 44 C32.99 44.495 32.99 44.495 34 45 C34 45.66 34 46.32 34 47 C34.99 47.33 35.98 47.66 37 48 C37 48.66 37 49.32 37 50 C37.99 50.33 38.98 50.66 40 51 C37.525 51.495 37.525 51.495 35 52 C34.60361328 51.2776416 34.20722656 50.5552832 33.79882812 49.81103516 C31.86990229 46.79669584 29.76326913 44.53641701 27.21875 42.0234375 C26.29449219 41.105625 25.37023437 40.1878125 24.41796875 39.2421875 C23.44543335 38.28633535 22.47277591 37.33060737 21.5 36.375 C20.52688058 35.41192611 19.55421988 34.44838848 18.58203125 33.484375 C16.79718295 31.71695199 15.01028891 29.95159081 13.22070312 28.18896484 C11.90854429 26.89555938 10.61966609 25.57644633 9.38867188 24.20556641 C7.92892607 22.67221643 7.92892607 22.67221643 5 23 C5.66 22.01 6.32 21.02 7 20 C6.401875 19.731875 5.80375 19.46375 5.1875 19.1875 C3.00152146 18.00082594 1.58667406 16.90400887 0 15 C0 14.34 0 13.68 0 13 C-0.598125 12.731875 -1.19625 12.46375 -1.8125 12.1875 C-3.99847854 11.00082594 -5.41332594 9.90400887 -7 8 C-7 7.34 -7 6.68 -7 6 C-8.32 5.34 -9.64 4.68 -11 4 C-4.5 0 -4.5 0 0 0 Z " fill="#191919" transform="translate(157,59)"/>
<path d="M0 0 C-0.268125 0.721875 -0.53625 1.44375 -0.8125 2.1875 C-0.874375 3.115625 -0.93625 4.04375 -1 5 C1.37505218 7.70848923 1.37505218 7.70848923 4 10 C4 10.66 4 11.32 4 12 C4.58716797 12.2582959 5.17433594 12.5165918 5.77929688 12.78271484 C8.17488188 14.09586203 9.66282122 15.49277945 11.53125 17.4765625 C12.17707031 18.146875 12.82289063 18.8171875 13.48828125 19.5078125 C14.83333335 20.92338189 16.17446663 22.34268487 17.51171875 23.765625 C18.15753906 24.43335938 18.80335938 25.10109375 19.46875 25.7890625 C20.34176758 26.71259521 20.34176758 26.71259521 21.23242188 27.65478516 C23.16029868 29.40374175 23.16029868 29.40374175 27 29 C27 29.66 27 30.32 27 31 C26.34 31 25.68 31 25 31 C25 31.66 25 32.32 25 33 C25.66 33 26.32 33 27 33 C27 33.66 27 34.32 27 35 C28.32 35.66 29.64 36.32 31 37 C31 37.66 31 38.32 31 39 C31.598125 39.268125 32.19625 39.53625 32.8125 39.8125 C34.99847854 40.99917406 36.41332594 42.09599113 38 44 C38 44.66 38 45.32 38 46 C38.66 46 39.32 46 40 46 C40 46.66 40 47.32 40 48 C41.32 48.33 42.64 48.66 44 49 C42.75539217 49.67667998 41.50403104 50.34094719 40.25 51 C39.55390625 51.37125 38.8578125 51.7425 38.140625 52.125 C36 53 36 53 32 53 C32 52.34 32 51.68 32 51 C31.30519531 50.76539063 30.61039062 50.53078125 29.89453125 50.2890625 C26.45311285 48.75644702 23.64098452 46.67175588 20.6875 44.375 C20.13771484 43.95476562 19.58792969 43.53453125 19.02148438 43.1015625 C17.67707832 42.07279961 16.33798587 41.0370991 15 40 C16.61594832 37.95880212 18.2856382 35.95927063 20 34 C20.66 34 21.32 34 22 34 C20.98424386 30.44485352 19.71823053 28.56562608 16.875 26.3125 C15.92625 25.549375 14.9775 24.78625 14 24 C14 23.34 14 22.68 14 22 C13.15115234 21.64228516 13.15115234 21.64228516 12.28515625 21.27734375 C9.51290127 19.7277243 7.64733707 17.83964175 5.4375 15.5625 C4.67308594 14.78003906 3.90867187 13.99757813 3.12109375 13.19140625 C2.42113281 12.46824219 1.72117187 11.74507813 1 11 C0.41347656 10.45214844 -0.17304688 9.90429688 -0.77734375 9.33984375 C-2 8 -2 8 -2 6 C-2.99 5.67 -3.98 5.34 -5 5 C-5 4.34 -5 3.68 -5 3 C-5.66 2.67 -6.32 2.34 -7 2 C-2.25 0 -2.25 0 0 0 Z " fill="#0D0D0D" transform="translate(311,388)"/>
<path d="M0 0 C0.495 1.98 0.495 1.98 1 4 C0.49210937 4.42410156 -0.01578125 4.84820312 -0.5390625 5.28515625 C-5.16626354 9.22780882 -9.15591946 13.29100134 -13 18 C-10.74259377 20.33524782 -8.7194239 22.18705073 -6 24 C-8.41401682 25.94902177 -10.83385605 27.88953848 -13.265625 29.81640625 C-14.94123248 31.15449851 -16.60165302 32.51224654 -18.234375 33.90234375 C-23.18973666 37.98379473 -23.18973666 37.98379473 -27.125 38.0625 C-30.22333594 36.9174628 -33.10319562 35.58634526 -36 34 C-33 32 -33 32 -31 32 C-31 31.34 -31 30.68 -31 30 C-30.34 29.67 -29.68 29.34 -29 29 C-28.67 28.01 -28.34 27.02 -28 26 C-26.8553125 25.319375 -26.8553125 25.319375 -25.6875 24.625 C-22.62069079 22.77065024 -20.96565039 20.98487652 -19 18 C-19 16.68 -19 15.36 -19 14 C-19.66 14 -20.32 14 -21 14 C-21 13.34 -21 12.68 -21 12 C-20.401875 12.309375 -19.80375 12.61875 -19.1875 12.9375 C-16.91043228 14.10209704 -16.91043228 14.10209704 -14 15 C-13.67 14.01 -13.34 13.02 -13 12 C-11.55972298 10.75612439 -10.11417554 9.51692813 -8.625 8.33203125 C-6.24959657 6.38488565 -4.13994424 4.19938713 -2 2 C-1.34 1.34 -0.68 0.68 0 0 Z " fill="#161616" transform="translate(181,403)"/>
<path d="M0 0 C3.08987242 1.23594897 6.14364865 2.52868113 9.1875 3.875 C8.1875 6.875 8.1875 6.875 6.25 7.9375 C5.569375 8.246875 4.88875 8.55625 4.1875 8.875 C3.5275 9.535 2.8675 10.195 2.1875 10.875 C1.1975 10.875 0.2075 10.875 -0.8125 10.875 C-1.080625 11.473125 -1.34875 12.07125 -1.625 12.6875 C-2.81167406 14.87347854 -3.90849113 16.28832594 -5.8125 17.875 C-6.4725 17.875 -7.1325 17.875 -7.8125 17.875 C-7.8125 18.535 -7.8125 19.195 -7.8125 19.875 C-8.4725 19.875 -9.1325 19.875 -9.8125 19.875 C-4.91025606 25.63709966 0.24492538 31.05891529 5.625 36.375 C6.35654297 37.10203125 7.08808594 37.8290625 7.84179688 38.578125 C9.62139824 40.34609499 11.40330918 42.11166378 13.1875 43.875 C10.1875 43.875 10.1875 43.875 8.01098633 42.0390625 C7.18880615 41.20117188 6.36662598 40.36328125 5.51953125 39.5 C4.62685547 38.59765625 3.73417969 37.6953125 2.81445312 36.765625 C1.87613843 35.8022427 0.9379895 34.83869892 0 33.875 C-0.94917769 32.91077654 -1.89903956 31.94722608 -2.84960938 30.984375 C-5.17740319 28.62113254 -7.49793133 26.25118518 -9.8125 23.875 C-11.7925 24.535 -13.7725 25.195 -15.8125 25.875 C-15.1525 24.885 -14.4925 23.895 -13.8125 22.875 C-13.75348078 20.85422654 -13.75348078 20.85422654 -14.8125 18.875 C-16.45545195 17.51255204 -18.12074337 16.17635125 -19.8125 14.875 C-19.8125 14.215 -19.8125 13.555 -19.8125 12.875 C-17.59435976 11.1461554 -15.37643531 9.52833053 -13.0625 7.9375 C-11.79664391 7.05371632 -10.53101313 6.16960983 -9.265625 5.28515625 C-8.66580811 4.87040039 -8.06599121 4.45564453 -7.44799805 4.02832031 C-6.09497898 3.07419849 -4.77833264 2.06872928 -3.47265625 1.05078125 C-1.8125 -0.125 -1.8125 -0.125 0 0 Z " fill="#0F0F0F" transform="translate(345.8125,59.125)"/>
<path d="M0 0 C3 1 3 1 4.25 2.75 C5.20401345 5.61204035 4.79531728 7.1065832 4 10 C2.78491211 12.03637695 2.78491211 12.03637695 1.27734375 13.98828125 C0.73916016 14.69404297 0.20097656 15.39980469 -0.35351562 16.12695312 C-0.91748047 16.84818359 -1.48144531 17.56941406 -2.0625 18.3125 C-2.63033203 19.05306641 -3.19816406 19.79363281 -3.78320312 20.55664062 C-5.18090852 22.37718126 -6.58941028 24.18942406 -8 26 C-10.64 24.02 -13.28 22.04 -16 20 C-16.845625 21.03125 -17.69125 22.0625 -18.5625 23.125 C-21.30141142 26.33232383 -24.2303849 29.06326686 -27.484375 31.73828125 C-29.12988553 33.06919162 -29.12988553 33.06919162 -31 35 C-31.66 34.34 -32.32 33.68 -33 33 C-30.45048405 29.77561217 -28.01713739 26.89510704 -24.8125 24.3125 C-21.87245245 22.12328275 -21.87245245 22.12328275 -20 19 C-19.34 19 -18.68 19 -18 19 C-18.495 18.21625 -18.99 17.4325 -19.5 16.625 C-21 14 -21 14 -21 12 C-20.34 12 -19.68 12 -19 12 C-19 12.66 -19 13.32 -19 14 C-18.34 14 -17.68 14 -17 14 C-17 14.66 -17 15.32 -17 16 C-16.34 16 -15.68 16 -15 16 C-14.74863281 15.41089844 -14.49726563 14.82179687 -14.23828125 14.21484375 C-12.84544599 11.72355798 -11.3791428 10.37699586 -9.1875 8.5625 C-5.9595887 5.83435639 -2.94106875 3.03297715 0 0 Z " fill="#141414" transform="translate(436,148)"/>
<path d="M0 0 C4.88688616 3.25792411 8.32328829 6.35573257 12 11 C13.62725191 12.71242487 15.30509145 14.35351741 17 16 C15.43387807 19.84411747 12.97905879 22.15950209 10 25 C9.175 25.845625 8.35 26.69125 7.5 27.5625 C5 30 5 30 0 34 C0.33 24.76 0.66 15.52 1 6 C0.34 5.67 -0.32 5.34 -1 5 C-0.67 3.35 -0.34 1.7 0 0 Z " fill="#010101" transform="translate(401,233)"/>
<path d="M0 0 C1.65 0.66 3.3 1.32 5 2 C2.24804714 6.7012528 -0.92031867 9.8989225 -5.09765625 13.38671875 C-6.82556093 14.85206707 -8.42369759 16.37459159 -10 18 C-13.83555225 16.4373676 -16.13609725 13.93550032 -19 11 C-19.763125 10.443125 -20.52625 9.88625 -21.3125 9.3125 C-22.1478125 8.6628125 -22.1478125 8.6628125 -23 8 C-23 7.34 -23 6.68 -23 6 C-23.66 6 -24.32 6 -25 6 C-25.66 4.68 -26.32 3.36 -27 2 C-18.09 2 -9.18 2 0 2 C0 1.34 0 0.68 0 0 Z " fill="#010101" transform="translate(261,400)"/>
<path d="M0 0 C0.92838323 3.13740534 1.10468419 5.91031455 1.0625 9.17578125 C1.05476563 10.16900391 1.04703125 11.16222656 1.0390625 12.18554688 C1.0131672 14.25846538 0.9871272 16.33138207 0.9609375 18.40429688 C0.91965572 23.72620574 1.05372494 28.75852332 2 34 C1.34 34 0.68 34 0 34 C-1.36176922 32.35648543 -2.68962066 30.68477344 -4 29 C-5.64429829 27.31126121 -7.31384218 25.64694485 -9 24 C-10.27215781 22.73049252 -11.5429471 21.45961248 -12.8125 20.1875 C-13.41707031 19.58292969 -14.02164063 18.97835937 -14.64453125 18.35546875 C-15.31548828 17.68451172 -15.31548828 17.68451172 -16 17 C-11.01595832 10.96668638 -5.58084697 5.4815829 0 0 Z " fill="#010101" transform="translate(98,234)"/>
<path d="M0 0 C2.31 0 4.62 0 7 0 C4.26430312 4.36247959 1.26410224 8.01007568 -2.421875 11.6171875 C-2.92672424 12.11920685 -3.43157349 12.6212262 -3.95172119 13.13845825 C-5.54646586 14.72211415 -7.14806044 16.29862587 -8.75 17.875 C-9.84030662 18.95526219 -10.9301549 20.0359872 -12.01953125 21.1171875 C-14.67441334 23.75015952 -17.33548103 26.37677662 -20 29 C-16.87260549 32.13357581 -13.73218538 35.25272722 -10.57421875 38.35546875 C-8.94519442 39.96602641 -7.31629116 41.57670653 -5.6875 43.1875 C-4.85154297 44.00669922 -4.01558594 44.82589844 -3.15429688 45.66992188 C-1.9699707 46.84458008 -1.9699707 46.84458008 -0.76171875 48.04296875 C-0.03944092 48.75477295 0.68283691 49.46657715 1.42700195 50.19995117 C3 52 3 52 3 54 C6.01031744 54.93423645 6.86650268 55.04449911 10 54 C9.34 55.32 8.68 56.64 8 58 C6.68 57.67 5.36 57.34 4 57 C4 56.34 4 55.68 4 55 C3.34 55 2.68 55 2 55 C0.8346869 53.90323473 -0.32107368 52.79450536 -1.42578125 51.63671875 C-2.62824128 50.38651837 -3.86056824 49.16497738 -5.10546875 47.95703125 C-5.83378906 47.24933594 -6.56210938 46.54164063 -7.3125 45.8125 C-8.00988281 45.13832031 -8.70726562 44.46414062 -9.42578125 43.76953125 C-11 42 -11 42 -11 40 C-11.598125 39.731875 -12.19625 39.46375 -12.8125 39.1875 C-14.99847854 38.00082594 -16.41332594 36.90400887 -18 35 C-18 34.34 -18 33.68 -18 33 C-20.91482778 32.19032562 -22.46113217 31.78154007 -25.3125 32.9375 C-26.1478125 33.4634375 -26.1478125 33.4634375 -27 34 C-26.01 32.35 -25.02 30.7 -24 29 C-26.69726898 25.40364136 -29.46715821 22.75733993 -33 20 C-34.66666667 18.33333333 -36.33333333 16.66666667 -38 15 C-38.66 14.67 -39.32 14.34 -40 14 C-40 14.99 -40 15.98 -40 17 C-40.66 16.67 -41.32 16.34 -42 16 C-40.68 13.69 -39.36 11.38 -38 9 C-37.67 9.66 -37.34 10.32 -37 11 C-37.33 11.66 -37.66 12.32 -38 13 C-37.4225 13.226875 -36.845 13.45375 -36.25 13.6875 C-33.41027692 15.34400513 -32.04775464 17.42567988 -30 20 C-28.16867788 21.60982311 -26.29801409 23.14927029 -24.390625 24.66796875 C-23.70226562 25.32732422 -23.70226562 25.32732422 -23 26 C-23 26.66 -23 27.32 -23 28 C-17.99417163 23.83931148 -13.56417805 19.55191124 -9.4453125 14.50390625 C-8.72988281 13.75947266 -8.72988281 13.75947266 -8 13 C-7.34 13 -6.68 13 -6 13 C-6 12.34 -6 11.68 -6 11 C-4.33333333 9.66666667 -2.66666667 8.33333333 -1 7 C0.75859065 5.06079733 2.36877433 3.05068369 4 1 C2.68 0.67 1.36 0.34 0 0 Z " fill="#2C2C2C" transform="translate(102,136)"/>
<path d="M0 0 C0.66 0.33 1.32 0.66 2 1 C2.625 4.0625 2.625 4.0625 3 7 C3.66 7 4.32 7 5 7 C7.55503423 9.353321 9.80920093 11.75380766 11.9375 14.5 C14.34914516 17.42320625 17.0672892 19.60595036 20 22 C22.875 24.6875 22.875 24.6875 25 27 C25 27.66 25 28.32 25 29 C25.66 29 26.32 29 27 29 C27 29.66 27 30.32 27 31 C28.32 31 29.64 31 31 31 C31.66 29.68 32.32 28.36 33 27 C33.99 27 34.98 27 36 27 C34.71937515 28.7074998 33.38232443 30.37373596 32 32 C31.34 32 30.68 32 30 32 C30 32.66 30 33.32 30 34 C29.34 34 28.68 34 28 34 C28 34.66 28 35.32 28 36 C27.34 36 26.68 36 26 36 C26 36.66 26 37.32 26 38 C25.34 38 24.68 38 24 38 C24 38.66 24 39.32 24 40 C20.81231119 43.4774787 17.29649537 46.4801883 13.69921875 49.5234375 C11.34614376 51.56817852 9.17391732 53.76732816 7 56 C5.66666667 57.33333333 4.33333333 58.66666667 3 60 C3.33 60.66 3.66 61.32 4 62 C2.02 62.495 2.02 62.495 0 63 C1.41172121 58.51107235 3.86476242 55.70964646 7.15625 52.48046875 C7.65918579 51.97703445 8.16212158 51.47360016 8.68029785 50.95491028 C9.73916426 49.89837459 10.80170146 48.84550641 11.86767578 47.79614258 C13.50348666 46.18406393 15.12542623 44.55892812 16.74609375 42.93164062 C17.77785386 41.90545311 18.81037956 40.88003464 19.84375 39.85546875 C20.33025024 39.3680571 20.81675049 38.88064545 21.31799316 38.37846375 C24.76893214 35 24.76893214 35 27 35 C25.35490397 31.96955994 23.76838497 29.76838497 21.3125 27.3125 C20.549375 26.549375 19.78625 25.78625 19 25 C19 24.34 19 23.68 19 23 C18.42096924 22.74259033 17.84193848 22.48518066 17.24536133 22.2199707 C13.11255218 19.97449421 10.01453563 16.4677994 6.6875 13.1875 C5.93404297 12.47529297 5.18058594 11.76308594 4.40429688 11.02929688 C3.69724609 10.33255859 2.99019531 9.63582031 2.26171875 8.91796875 C1.61162842 8.28656982 0.96153809 7.6551709 0.29174805 7.00463867 C-1 5 -1 5 -0.70385742 2.25512695 C-0.355448 1.13883911 -0.355448 1.13883911 0 0 Z " fill="#292929" transform="translate(391,302)"/>
<path d="M0 0 C0.66 0 1.32 0 2 0 C1.90912109 0.64735107 1.81824219 1.29470215 1.72460938 1.96166992 C-0.30750102 16.734852 -1.42331168 31.09002194 -1 46 C-3.09352976 42.56632144 -3.23437612 39.90636407 -3.1953125 35.921875 C-3.18886719 34.76171875 -3.18242188 33.6015625 -3.17578125 32.40625 C-3.15902344 31.1996875 -3.14226562 29.993125 -3.125 28.75 C-3.11597656 27.52796875 -3.10695313 26.3059375 -3.09765625 25.046875 C-3.07409603 22.03116634 -3.03822539 19.01555842 -3 16 C-7.95 20.95 -12.9 25.9 -18 31 C-13.62627439 36.11693401 -13.62627439 36.11693401 -9 41 C-9.33 41.66 -9.66 42.32 -10 43 C-11.7074998 41.71937515 -13.37373596 40.38232443 -15 39 C-15 38.34 -15 37.68 -15 37 C-15.66 37 -16.32 37 -17 37 C-19.625 34.625 -19.625 34.625 -22 32 C-22 31.34 -22 30.68 -22 30 C-20.6015625 28.625 -20.6015625 28.625 -18.625 27 C-7.97409714 18.80296476 -7.97409714 18.80296476 -1.62109375 7.7734375 C-1.53021484 6.58621094 -1.53021484 6.58621094 -1.4375 5.375 C-1.09841828 1.09841828 -1.09841828 1.09841828 0 0 Z " fill="#282828" transform="translate(101,219)"/>
<path d="M0 0 C-0.268125 0.721875 -0.53625 1.44375 -0.8125 2.1875 C-0.874375 3.115625 -0.93625 4.04375 -1 5 C1.37505218 7.70848923 1.37505218 7.70848923 4 10 C4 10.66 4 11.32 4 12 C4.58716797 12.2582959 5.17433594 12.5165918 5.77929688 12.78271484 C8.17488188 14.09586203 9.66282122 15.49277945 11.53125 17.4765625 C12.17707031 18.146875 12.82289063 18.8171875 13.48828125 19.5078125 C14.83333335 20.92338189 16.17446663 22.34268487 17.51171875 23.765625 C18.15753906 24.43335938 18.80335938 25.10109375 19.46875 25.7890625 C20.34176758 26.71259521 20.34176758 26.71259521 21.23242188 27.65478516 C23.16029868 29.40374175 23.16029868 29.40374175 27 29 C27 29.66 27 30.32 27 31 C26.34 31 25.68 31 25 31 C25 31.66 25 32.32 25 33 C25.66 33 26.32 33 27 33 C26 35 26 35 24.125 35.875 C21.63203665 37.19480413 20.54852219 38.67721672 19 41 C17.68 40.67 16.36 40.34 15 40 C16.61594832 37.95880212 18.2856382 35.95927063 20 34 C20.66 34 21.32 34 22 34 C20.98424386 30.44485352 19.71823053 28.56562608 16.875 26.3125 C15.92625 25.549375 14.9775 24.78625 14 24 C14 23.34 14 22.68 14 22 C13.15115234 21.64228516 13.15115234 21.64228516 12.28515625 21.27734375 C9.51290127 19.7277243 7.64733707 17.83964175 5.4375 15.5625 C4.67308594 14.78003906 3.90867187 13.99757813 3.12109375 13.19140625 C2.42113281 12.46824219 1.72117187 11.74507813 1 11 C0.41347656 10.45214844 -0.17304688 9.90429688 -0.77734375 9.33984375 C-2 8 -2 8 -2 6 C-2.99 5.67 -3.98 5.34 -5 5 C-5 4.34 -5 3.68 -5 3 C-5.66 2.67 -6.32 2.34 -7 2 C-2.25 0 -2.25 0 0 0 Z " fill="#252525" transform="translate(311,388)"/>
<path d="M0 0 C0.99 0.66 1.98 1.32 3 2 C1.68 3.32 0.36 4.64 -1 6 C0.32 7.65 1.64 9.3 3 11 C7.31730413 10.52590352 9.33647461 7.96603297 12.25 4.9375 C13.14203125 4.01839844 14.0340625 3.09929687 14.953125 2.15234375 C15.62859375 1.44207031 16.3040625 0.73179687 17 0 C17.33 0.99 17.66 1.98 18 3 C14.37 6.63 10.74 10.26 7 14 C11.38442526 19.25174926 16.00842093 24.13222473 20.875 28.9375 C21.56335938 29.62134766 22.25171875 30.30519531 22.9609375 31.00976562 C24.63833511 32.67551464 26.31803791 34.3388622 28 36 C27.505 36.99 27.505 36.99 27 38 C26.34402832 37.3387915 25.68805664 36.67758301 25.01220703 35.99633789 C22.58028964 33.54739147 20.14614635 31.10070247 17.71044922 28.65551758 C16.6561597 27.59619526 15.60276891 26.53597771 14.55029297 25.47485352 C13.03848143 23.95093039 11.52348098 22.43024216 10.0078125 20.91015625 C9.09660645 19.99371338 8.18540039 19.07727051 7.24658203 18.13305664 C5.19154633 15.97429864 5.19154633 15.97429864 3 15 C3 15.66 3 16.32 3 17 C2.34 16.67 1.68 16.34 1 16 C1.33 15.01 1.66 14.02 2 13 C-0.25740623 10.66475218 -2.2805761 8.81294927 -5 7 C-4.67 6.34 -4.34 5.68 -4 5 C-3.34 5 -2.68 5 -2 5 C-1.34 3.35 -0.68 1.7 0 0 Z " fill="#2E2E2E" transform="translate(76,321)"/>
<path d="M0 0 C0.99 0.33 1.98 0.66 3 1 C3 1.66 3 2.32 3 3 C3.66 3 4.32 3 5 3 C5 3.66 5 4.32 5 5 C5.66 5 6.32 5 7 5 C7 5.66 7 6.32 7 7 C7.66 7 8.32 7 9 7 C9 7.66 9 8.32 9 9 C9.66 9 10.32 9 11 9 C11 9.66 11 10.32 11 11 C10.113125 10.731875 9.22625 10.46375 8.3125 10.1875 C7.219375 10.125625 6.12625 10.06375 5 10 C2.54363507 12.15218732 2.54363507 12.15218732 0 15 C-1.01045314 16.04152874 -2.02490644 17.07918899 -3.04296875 18.11328125 C-3.55923828 18.63857422 -4.07550781 19.16386719 -4.60742188 19.70507812 C-5.12884766 20.23552734 -5.65027344 20.76597656 -6.1875 21.3125 C-6.98704102 22.13717773 -6.98704102 22.13717773 -7.80273438 22.97851562 C-9.16424956 24.35715678 -10.57840502 25.68339727 -12 27 C-12.66 27 -13.32 27 -14 27 C-14.33 27.66 -14.66 28.32 -15 29 C-16.32 27.35 -17.64 25.7 -19 24 C-18.113125 24.12375 -17.22625 24.2475 -16.3125 24.375 C-13.08203101 24.34083825 -13.08203101 24.34083825 -11.55859375 22.6640625 C-10.34978449 21.12689013 -9.17332124 19.56442832 -8 18 C-7.34 18 -6.68 18 -6 18 C-6 17.34 -6 16.68 -6 16 C-5.34 16 -4.68 16 -4 16 C-3.34 14.68 -2.68 13.36 -2 12 C-1.34 12 -0.68 12 0 12 C0 11.34 0 10.68 0 10 C0.99 9.34 1.98 8.68 3 8 C3.33 7.01 3.66 6.02 4 5 C2.68 4.34 1.36 3.68 0 3 C0 2.01 0 1.02 0 0 Z " fill="#2A2A2A" transform="translate(372,116)"/>
<path d="M0 0 C0.33 1.32 0.66 2.64 1 4 C0.49210937 4.42410156 -0.01578125 4.84820312 -0.5390625 5.28515625 C-5.16626354 9.22780882 -9.15591946 13.29100134 -13 18 C-10.74259377 20.33524782 -8.7194239 22.18705073 -6 24 C-6.99 24.66 -7.98 25.32 -9 26 C-9.7425 25.030625 -10.485 24.06125 -11.25 23.0625 C-12.97309915 20.97612639 -13.73868694 20.09887521 -16.3125 19.125 C-16.869375 19.08375 -17.42625 19.0425 -18 19 C-18 19.66 -18 20.32 -18 21 C-18.66 21 -19.32 21 -20 21 C-20 21.66 -20 22.32 -20 23 C-20.66 22.67 -21.32 22.34 -22 22 C-21.505 21.4225 -21.01 20.845 -20.5 20.25 C-18.63019987 17.89599371 -18.63019987 17.89599371 -19 14 C-19.66 14 -20.32 14 -21 14 C-21 13.34 -21 12.68 -21 12 C-20.401875 12.309375 -19.80375 12.61875 -19.1875 12.9375 C-16.91043228 14.10209704 -16.91043228 14.10209704 -14 15 C-13.67 14.01 -13.34 13.02 -13 12 C-11.55972298 10.75612439 -10.11417554 9.51692813 -8.625 8.33203125 C-6.24959657 6.38488565 -4.13994424 4.19938713 -2 2 C-1.34 1.34 -0.68 0.68 0 0 Z " fill="#191919" transform="translate(181,403)"/>
<path d="M0 0 C0 3 0 3 -1.48461914 4.74584961 C-2.16129639 5.37499268 -2.83797363 6.00413574 -3.53515625 6.65234375 C-4.26154297 7.34650391 -4.98792969 8.04066406 -5.73632812 8.75585938 C-7.28724373 10.21041247 -8.84194239 11.66094235 -10.40039062 13.10742188 C-11.12548828 13.80287109 -11.85058594 14.49832031 -12.59765625 15.21484375 C-13.61098022 16.16025024 -13.61098022 16.16025024 -14.64477539 17.12475586 C-16.23223278 18.90159402 -16.23223278 18.90159402 -15.86108398 21.11547852 C-14.59687241 23.88226307 -12.37033792 25.13759164 -10 27 C-8.1875 29.75 -8.1875 29.75 -7 32 C-10.21524305 30.59155282 -12.32183868 28.89655214 -14.75 26.375 C-15.36359375 25.74335937 -15.9771875 25.11171875 -16.609375 24.4609375 C-17.06828125 23.97882813 -17.5271875 23.49671875 -18 23 C-21.21524305 24.40844718 -23.32183868 26.10344786 -25.75 28.625 C-26.67039063 29.57246094 -26.67039063 29.57246094 -27.609375 30.5390625 C-28.06828125 31.02117187 -28.5271875 31.50328125 -29 32 C-29.66 31.67 -30.32 31.34 -31 31 C-30.28972656 30.30132812 -29.57945312 29.60265625 -28.84765625 28.8828125 C-27.92855469 27.97273438 -27.00945312 27.06265625 -26.0625 26.125 C-24.68771484 24.76761719 -24.68771484 24.76761719 -23.28515625 23.3828125 C-20.98812373 21.22317745 -20.98812373 21.22317745 -20 19 C-20.66 19 -21.32 19 -22 19 C-21.67 18.34 -21.34 17.68 -21 17 C-20.236875 16.896875 -19.47375 16.79375 -18.6875 16.6875 C-15.05928125 15.75935102 -14.20392406 13.96152296 -12 11 C-10.34997172 9.64613064 -8.6825613 8.31321858 -7 7 C-5.31384218 5.35305515 -3.64429829 3.68873879 -2 2 C-1.34 1.34 -0.68 0.68 0 0 Z " fill="#292929" transform="translate(269,60)"/>
<path d="M0 0 C0 0.99 0 1.98 0 3 C0.16507646 5.57540213 0.16507646 5.57540213 1 8 C2.86644906 9.18330183 2.86644906 9.18330183 5 10 C6.75 11.5 6.75 11.5 8 13 C8 13.66 8 14.32 8 15 C8.639375 15.268125 9.27875 15.53625 9.9375 15.8125 C12 17 12 17 13 20 C13.8971875 20.433125 13.8971875 20.433125 14.8125 20.875 C17.6872613 22.35344867 19.04799784 24.46239719 21 27 C21.66 27.33 22.32 27.66 23 28 C23 28.66 23 29.32 23 30 C23.99 30.33 24.98 30.66 26 31 C26 31.66 26 32.32 26 33 C26.99 33.33 27.98 33.66 29 34 C26.525 34.495 26.525 34.495 24 35 C23.60361328 34.2776416 23.20722656 33.5552832 22.79882812 32.81103516 C20.86990229 29.79669584 18.76326913 27.53641701 16.21875 25.0234375 C15.29449219 24.105625 14.37023437 23.1878125 13.41796875 22.2421875 C12.44543335 21.28633535 11.47277591 20.33060737 10.5 19.375 C9.52688058 18.41192611 8.55421988 17.44838848 7.58203125 16.484375 C5.79718295 14.71695199 4.01028891 12.95159081 2.22070312 11.18896484 C0.90854429 9.89555938 -0.38033391 8.57644633 -1.61132812 7.20556641 C-3.07107393 5.67221643 -3.07107393 5.67221643 -6 6 C-4 4 -2 2 0 0 Z " fill="#2A2A2A" transform="translate(168,76)"/>
<path d="M0 0 C0.33 0.66 0.66 1.32 1 2 C0.34 2 -0.32 2 -1 2 C-1 2.66 -1 3.32 -1 4 C-1.66 4 -2.32 4 -3 4 C-1.6062718 8.43458973 0.60582235 10.87378374 4 14 C-0.38968456 14 -1.76905739 11.87194899 -5 9 C-5.52787109 9.65355469 -5.52787109 9.65355469 -6.06640625 10.3203125 C-9.27257165 14.18780184 -12.60349125 17.5479151 -16.484375 20.73828125 C-18.12988553 22.06919162 -18.12988553 22.06919162 -20 24 C-20.66 23.34 -21.32 22.68 -22 22 C-19.45048405 18.77561217 -17.01713739 15.89510704 -13.8125 13.3125 C-10.87245245 11.12328275 -10.87245245 11.12328275 -9 8 C-8.34 8 -7.68 8 -7 8 C-7.495 7.21625 -7.99 6.4325 -8.5 5.625 C-10 3 -10 3 -10 1 C-9.34 1 -8.68 1 -8 1 C-8 1.66 -8 2.32 -8 3 C-7.34 3 -6.68 3 -6 3 C-6 3.66 -6 4.32 -6 5 C-5.34 5 -4.68 5 -4 5 C-3.71125 4.360625 -3.4225 3.72125 -3.125 3.0625 C-2 1 -2 1 0 0 Z " fill="#181818" transform="translate(425,159)"/>
<path d="M0 0 C-2.40545638 1.20272819 -3.94996953 1.10071472 -6.625 1.0625 C-7.85089844 1.04896484 -7.85089844 1.04896484 -9.1015625 1.03515625 C-10.04128906 1.01775391 -10.04128906 1.01775391 -11 1 C-11 1.99 -11 2.98 -11 4 C-12.875 6.1875 -12.875 6.1875 -15 8 C-15.66 8 -16.32 8 -17 8 C-17 8.66 -17 9.32 -17 10 C-18.43287943 11.19961999 -19.86973679 12.39501028 -21.33203125 13.55859375 C-23.90422526 15.7814031 -25.89439655 18.33703093 -28 21 C-26.35 22.65 -24.7 24.3 -23 26 C-23.33 26.66 -23.66 27.32 -24 28 C-26 26.625 -26 26.625 -28 25 C-28 24.34 -28 23.68 -28 23 C-28.61875 22.9175 -29.2375 22.835 -29.875 22.75 C-32 22 -32 22 -33.1875 20.0625 C-33.455625 19.381875 -33.72375 18.70125 -34 18 C-34.33 17.34 -34.66 16.68 -35 16 C-33.02 16.66 -31.04 17.32 -29 18 C-28.37351563 17.3503125 -27.74703125 16.700625 -27.1015625 16.03125 C-26.28429687 15.1959375 -25.46703125 14.360625 -24.625 13.5 C-23.81289063 12.6646875 -23.00078125 11.829375 -22.1640625 10.96875 C-20 9 -20 9 -18 9 C-17.5359375 8.0409375 -17.5359375 8.0409375 -17.0625 7.0625 C-16 5 -16 5 -15 4 C-15.99 3.01 -16.98 2.02 -18 1 C-15.56348622 0.63737003 -13.12623023 0.28461036 -10.6875 -0.0625 C-9.99720703 -0.16626953 -9.30691406 -0.27003906 -8.59570312 -0.37695312 C-5.30415164 -0.83808836 -3.19783876 -1.06594625 0 0 Z " fill="#2C2C2C" transform="translate(280,399)"/>
<path d="M0 0 C5.26349198 0.41533667 7.50849854 1.89168176 11.1796875 5.62109375 C12.1078125 6.55630859 13.0359375 7.49152344 13.9921875 8.45507812 C14.46495117 8.94435791 14.93771484 9.4336377 15.42480469 9.93774414 C16.87912995 11.44177109 18.35157707 12.92601765 19.828125 14.40820312 C27 21.70563616 27 21.70563616 27 24 C30.01031744 24.93423645 30.86650268 25.04449911 34 24 C33.34 25.32 32.68 26.64 32 28 C30.68 27.67 29.36 27.34 28 27 C28 26.34 28 25.68 28 25 C27.34 25 26.68 25 26 25 C24.8346869 23.90323473 23.67892632 22.79450536 22.57421875 21.63671875 C21.37175872 20.38651837 20.13943176 19.16497738 18.89453125 17.95703125 C17.80205078 16.89548828 17.80205078 16.89548828 16.6875 15.8125 C15.99011719 15.13832031 15.29273437 14.46414062 14.57421875 13.76953125 C13 12 13 12 13 10 C12.401875 9.731875 11.80375 9.46375 11.1875 9.1875 C9.00152146 8.00082594 7.58667406 6.90400887 6 5 C6 4.34 6 3.68 6 3 C3.08517222 2.19032562 1.53886783 1.78154007 -1.3125 2.9375 C-1.869375 3.288125 -2.42625 3.63875 -3 4 C-2.01 2.68 -1.02 1.36 0 0 Z " fill="#262626" transform="translate(78,166)"/>
<path d="M0 0 C-0.33 1.98 -0.66 3.96 -1 6 C0.0209375 6.7425 0.0209375 6.7425 1.0625 7.5 C3.39887873 9.48840743 5.19441824 11.30924161 7.15625 13.625 C11.05111728 18.12541702 15.20556404 22.31839814 19.4375 26.5 C20.16904297 27.22703125 20.90058594 27.9540625 21.65429688 28.703125 C23.43389824 30.47109499 25.21580918 32.23666378 27 34 C24 34 24 34 21.82348633 32.1640625 C21.00130615 31.32617188 20.17912598 30.48828125 19.33203125 29.625 C18.43935547 28.72265625 17.54667969 27.8203125 16.62695312 26.890625 C15.68863843 25.9272427 14.7504895 24.96369892 13.8125 24 C12.86332231 23.03577654 11.91346044 22.07222608 10.96289062 21.109375 C8.63509681 18.74613254 6.31456867 16.37618518 4 14 C2.02 14.66 0.04 15.32 -2 16 C-1.34 15.01 -0.68 14.02 0 13 C0.05901922 10.97922654 0.05901922 10.97922654 -1 9 C-2.64295195 7.63755204 -4.30824337 6.30135125 -6 5 C-6 4.34 -6 3.68 -6 3 C-2.53846154 0 -2.53846154 0 0 0 Z " fill="#2A2A2A" transform="translate(332,69)"/>
<path d="M0 0 C0 3.94385909 -1.22498218 4.70616592 -3.875 7.5625 C-4.68710937 8.44035156 -5.49921875 9.31820312 -6.3359375 10.22265625 C-9.83621653 13.87177412 -13.41147191 17.43834915 -17.03125 20.96875 C-19.04852969 22.84591953 -19.04852969 22.84591953 -20 25 C-19.34 25 -18.68 25 -18 25 C-18 25.66 -18 26.32 -18 27 C-20.64 26.34 -23.28 25.68 -26 25 C-23.12033413 22.0051475 -20.0667121 19.3154284 -16.87890625 16.66015625 C-14.47921942 14.53985084 -12.25069559 12.27765002 -10 10 C-5 5 -5 5 0 0 Z " fill="#303030" transform="translate(329,85)"/>
<path d="M0 0 C0 3 0 3 -1.98779297 5.36010742 C-2.89674316 6.26607666 -3.80569336 7.1720459 -4.7421875 8.10546875 C-5.22575714 8.5895369 -5.70932678 9.07360504 -6.20755005 9.57234192 C-7.23129592 10.59374736 -8.25873634 11.61146112 -9.28955078 12.62573242 C-10.87062163 14.18318703 -12.4379312 15.75355508 -14.00390625 17.32617188 C-21.72096655 25 -21.72096655 25 -24 25 C-24.28875 25.61875 -24.5775 26.2375 -24.875 26.875 C-26 29 -26 29 -28 31 C-28.99 30.67 -29.98 30.34 -31 30 C-30.195625 29.484375 -29.39125 28.96875 -28.5625 28.4375 C-25.33552922 25.36794243 -25.25103743 23.35131541 -25 19 C-24.67 20.32 -24.34 21.64 -24 23 C-19.17254472 18.95116654 -15.03110629 14.85799988 -11 10 C-9.25589734 8.41048826 -7.46433819 6.89726749 -5.6484375 5.390625 C-3.64844929 3.70343115 -1.81283511 1.88534852 0 0 Z " fill="#282828" transform="translate(161,83)"/>
<path d="M0 0 C0.66 0.33 1.32 0.66 2 1 C-1.75 5.875 -1.75 5.875 -4 7 C-4.23270005 9.34326986 -4.23270005 9.34326986 -1.5625 11.5 C-0.716875 12.325 0.12875 13.15 1 14 C1.33 14.66 1.66 15.32 2 16 C-1.43595166 14.47291037 -4.11912454 12.40072955 -7 10 C-7.70125 10.721875 -8.4025 11.44375 -9.125 12.1875 C-11.92770745 14.99823813 -14.92262792 17.49516226 -18 20 C-16.71480435 17.13302508 -15.42870746 15.02392288 -13 13 C-12.34 13 -11.68 13 -11 13 C-9.17339803 8.87851657 -9.17339803 8.87851657 -9.875 4.625 C-10.24625 4.08875 -10.6175 3.5525 -11 3 C-8 4 -8 4 -6 6 C-4.02 4.02 -2.04 2.04 0 0 Z " fill="#2B2B2B" transform="translate(426,242)"/>
<path d="M0 0 C0.66 0 1.32 0 2 0 C2 0.66 2 1.32 2 2 C2.5662207 2.24024902 3.13244141 2.48049805 3.71582031 2.72802734 C6.47040587 4.26195111 8.33249671 6.10726018 10.546875 8.3515625 C11.39121094 9.20234375 12.23554688 10.053125 13.10546875 10.9296875 C14.41451172 12.26386719 14.41451172 12.26386719 15.75 13.625 C16.63816406 14.5221875 17.52632812 15.419375 18.44140625 16.34375 C20.63216969 18.55807004 22.81812763 20.77692435 25 23 C24.67 23.66 24.34 24.32 24 25 C20.02663319 22.11027869 17.01056262 18.80651628 13.83984375 15.1015625 C9.01001766 9.32944042 9.01001766 9.32944042 3 5 C2.87625 6.299375 2.7525 7.59875 2.625 8.9375 C2.4140625 11.15234375 2.4140625 11.15234375 2 13 C1.01 13.495 1.01 13.495 0 14 C0 9.38 0 4.76 0 0 Z " fill="#2B2B2B" transform="translate(135,390)"/>
<path d="M0 0 C0.66 0.33 1.32 0.66 2 1 C-1.80433166 5.55594734 -5.63473189 9.65862967 -10.23046875 13.4140625 C-12.94812339 15.84975297 -15.21188581 18.6410687 -17.51953125 21.4609375 C-18.00808594 21.96882813 -18.49664062 22.47671875 -19 23 C-19.66 23 -20.32 23 -21 23 C-19.48623919 19.43235715 -17.39486871 17.16293713 -14.6484375 14.453125 C-13.79765625 13.60878906 -12.946875 12.76445312 -12.0703125 11.89453125 C-11.18085938 11.02183594 -10.29140625 10.14914062 -9.375 9.25 C-8.4778125 8.36183594 -7.580625 7.47367187 -6.65625 6.55859375 C-4.44192996 4.36783031 -2.22307565 2.18187237 0 0 Z " fill="#272727" transform="translate(359,394)"/>
<path d="M0 0 C16.335 0.99 16.335 0.99 33 2 C33 2.33 33 2.66 33 3 C24.42 3.33 15.84 3.66 7 4 C7 4.99 7 5.98 7 7 C5.62437146 5.71034824 4.29233607 4.37310707 3 3 C3 2.34 3 1.68 3 1 C2.01 0.67 1.02 0.34 0 0 Z " fill="#111111" transform="translate(228,399)"/>
<path d="M0 0 C1.36176922 1.64351457 2.68962066 3.31522656 4 5 C6.32301207 7.38754018 8.70024585 9.71085168 11.09765625 12.0234375 C12.19400391 13.09464844 12.19400391 13.09464844 13.3125 14.1875 C14.00988281 14.86167969 14.70726563 15.53585938 15.42578125 16.23046875 C17 18 17 18 17 20 C13.55824169 18.85274723 12.70880725 17.74715348 10.4375 15 C8.07789673 12.05040821 8.07789673 12.05040821 5 10 C5 9.34 5 8.68 5 8 C4.34 8 3.68 8 3 8 C1.29115995 6.37660195 -0.37446717 4.70680947 -2 3 C-2.66 2.34 -3.32 1.68 -4 1 C-2 0 -2 0 0 0 Z " fill="#242424" transform="translate(60,227)"/>
<path d="M0 0 C1.1725131 0.95117134 2.33787015 1.91117009 3.5 2.875 C4.1496875 3.40867187 4.799375 3.94234375 5.46875 4.4921875 C6.22671875 5.23855469 6.22671875 5.23855469 7 6 C7 6.66 7 7.32 7 8 C7.66386719 7.97679688 8.32773437 7.95359375 9.01171875 7.9296875 C17.78207381 7.75043937 17.78207381 7.75043937 22 10 C22 10.33 22 10.66 22 11 C20.8965625 10.85691406 19.793125 10.71382812 18.65625 10.56640625 C13.61263334 9.93595417 8.55830434 9.43377259 3.5 8.9375 C2.5821875 8.84662109 1.664375 8.75574219 0.71875 8.66210938 C-1.52074478 8.4404927 -3.7603271 8.2198079 -6 8 C-6 7.67 -6 7.34 -6 7 C-2.7 6.67 0.6 6.34 4 6 C3.34 5.38125 2.68 4.7625 2 4.125 C0 2 0 2 0 0 Z " fill="#555555" transform="translate(262,92)"/>
<path d="M0 0 C0.598125 0.309375 1.19625 0.61875 1.8125 0.9375 C4.08956772 2.10209704 4.08956772 2.10209704 7 3 C7.45375 3.763125 7.9075 4.52625 8.375 5.3125 C10.19131134 8.31639952 12.18448626 9.94543592 15 12 C14.01 12.66 13.02 13.32 12 14 C11.2575 13.030625 10.515 12.06125 9.75 11.0625 C8.02690085 8.97612639 7.26131306 8.09887521 4.6875 7.125 C4.130625 7.08375 3.57375 7.0425 3 7 C3 7.66 3 8.32 3 9 C2.34 9 1.68 9 1 9 C1 9.66 1 10.32 1 11 C0.34 10.67 -0.32 10.34 -1 10 C-0.505 9.4225 -0.01 8.845 0.5 8.25 C2.36980013 5.89599371 2.36980013 5.89599371 2 2 C1.34 2 0.68 2 0 2 C0 1.34 0 0.68 0 0 Z " fill="#2B2B2B" transform="translate(160,415)"/>
<path d="M0 0 C0.66 0 1.32 0 2 0 C0.93102496 2.30240777 -0.03624312 4.04012631 -1.75 5.9375 C-2.1625 6.618125 -2.575 7.29875 -3 8 C-2.29042763 10.73398135 -2.29042763 10.73398135 -1 13 C-1.66 13 -2.32 13 -3 13 C-3 12.34 -3 11.68 -3 11 C-3.66 11 -4.32 11 -5 11 C-5 10.34 -5 9.68 -5 9 C-5.66 9 -6.32 9 -7 9 C-7 8.34 -7 7.68 -7 7 C-7.66 7 -8.32 7 -9 7 C-9 6.34 -9 5.68 -9 5 C-9.66 5 -10.32 5 -11 5 C-11.66 3.68 -12.32 2.36 -13 1 C-12.443125 1.28875 -11.88625 1.5775 -11.3125 1.875 C-8.91505355 3.0413253 -6.48403061 4.0339881 -4 5 C-3.34 4.01 -2.68 3.02 -2 2 C-1.34 2 -0.68 2 0 2 C0 1.34 0 0.68 0 0 Z " fill="#606060" transform="translate(128,370)"/>
<path d="M0 0 C0 0.66 0 1.32 0 2 C-0.66 2 -1.32 2 -2 2 C-2.2475 2.61875 -2.495 3.2375 -2.75 3.875 C-4.20628639 6.35068687 -5.37812506 6.95125002 -8 8 C-8 8.66 -8 9.32 -8 10 C-8.66 10 -9.32 10 -10 10 C-10 10.66 -10 11.32 -10 12 C-12.5 13.625 -12.5 13.625 -15 15 C-15 13.68 -15 12.36 -15 11 C-13.34928604 9.97388051 -11.68029994 8.97691857 -10 8 C-9.505 7.175 -9.01 6.35 -8.5 5.5 C-6.52979131 2.21631886 -3.967699 0 0 0 Z " fill="#616161" transform="translate(383,373)"/>
<path d="M0 0 C0.33 0.66 0.66 1.32 1 2 C0.34 2 -0.32 2 -1 2 C-1 2.66 -1 3.32 -1 4 C-1.66 4 -2.32 4 -3 4 C-1.6062718 8.43458973 0.60582235 10.87378374 4 14 C1 14 1 14 -1.5 11.5625 C-2.325 10.716875 -3.15 9.87125 -4 9 C-4.99 8.67 -5.98 8.34 -7 8 C-10 3.66666667 -10 3.66666667 -10 1 C-9.34 1 -8.68 1 -8 1 C-8 1.66 -8 2.32 -8 3 C-7.34 3 -6.68 3 -6 3 C-6 3.66 -6 4.32 -6 5 C-5.34 5 -4.68 5 -4 5 C-3.566875 4.0409375 -3.566875 4.0409375 -3.125 3.0625 C-2 1 -2 1 0 0 Z " fill="#2C2C2C" transform="translate(425,159)"/>
<path d="M0 0 C1.98 0.99 1.98 0.99 4 2 C4 2.66 4 3.32 4 4 C4.598125 4.268125 5.19625 4.53625 5.8125 4.8125 C7.99847854 5.99917406 9.41332594 7.09599113 11 9 C11 9.66 11 10.32 11 11 C11.66 11 12.32 11 13 11 C13 11.66 13 12.32 13 13 C14.32 13.33 15.64 13.66 17 14 C13.535 15.485 13.535 15.485 10 17 C10 16.34 10 15.68 10 15 C10.66 15 11.32 15 12 15 C11.2575 14.071875 11.2575 14.071875 10.5 13.125 C9 11 9 11 9 9 C8.443125 8.814375 7.88625 8.62875 7.3125 8.4375 C3.93245808 6.33639286 2.14859619 3.29334006 0 0 Z " fill="#373737" transform="translate(338,423)"/>
<path d="M0 0 C0.33 0.99 0.66 1.98 1 3 C4.3 3 7.6 3 11 3 C11 3.33 11 3.66 11 4 C10.13048706 4.08302368 10.13048706 4.08302368 9.2434082 4.16772461 C6.59951088 4.42167617 3.95601028 4.67955194 1.3125 4.9375 C0.40048828 5.02451172 -0.51152344 5.11152344 -1.45117188 5.20117188 C-2.33740234 5.28818359 -3.22363281 5.37519531 -4.13671875 5.46484375 C-4.94842529 5.543396 -5.76013184 5.62194824 -6.59643555 5.70288086 C-9.09801594 6.01211634 -11.53516441 6.47634232 -14 7 C-14 6.34 -14 5.68 -14 5 C-11.47524538 3.73762269 -9.68799534 3.90143596 -6.875 3.9375 C-5.96492187 3.94652344 -5.05484375 3.95554687 -4.1171875 3.96484375 C-3.41851562 3.97644531 -2.71984375 3.98804687 -2 4 C-1.34 2.68 -0.68 1.36 0 0 Z " fill="#656565" transform="translate(233,96)"/>
<path d="M0 0 C0.598125 0.9075 1.19625 1.815 1.8125 2.75 C3.77863967 6.02423385 3.77863967 6.02423385 6.4375 7.9375 C9.72982008 10.58741617 11.64367849 13.49917947 14 17 C11.13302508 15.71480435 9.02392288 14.42870746 7 12 C7 11.34 7 10.68 7 10 C6.401875 9.731875 5.80375 9.46375 5.1875 9.1875 C3.00152146 8.00082594 1.58667406 6.90400887 0 5 C0 4.34 0 3.68 0 3 C-1.32 2.34 -2.64 1.68 -4 1 C-2 0 -2 0 0 0 Z " fill="#2B2B2B" transform="translate(150,62)"/>
<path d="M0 0 C3.3 0.99 6.6 1.98 10 3 C6 5 6 5 3 5 C0.31232422 7.43750025 0.31232422 7.43750025 -2 10 C-2.66 9.34 -3.32 8.68 -4 8 C-3.34 7.4225 -2.68 6.845 -2 6.25 C0.44290923 4.00346023 0.44290923 4.00346023 0 0 Z " fill="#303030" transform="translate(191,389)"/>
<path d="M0 0 C1.31896465 0.92838287 2.62998689 1.86805732 3.9375 2.8125 C4.66839844 3.33457031 5.39929688 3.85664063 6.15234375 4.39453125 C8 6 8 6 9 9 C9.99 9.33 10.98 9.66 12 10 C12 10.66 12 11.32 12 12 C12.99 12.33 13.98 12.66 15 13 C14.67 13.66 14.34 14.32 14 15 C10.63797061 13.57390841 8.76324421 11.85651485 6.4375 9.0625 C3.96809867 6.11693957 3.96809867 6.11693957 1.28515625 3.37109375 C0 2 0 2 0 0 Z " fill="#292929" transform="translate(423,338)"/>
<path d="M0 0 C2.86697492 1.28519565 4.97607712 2.57129254 7 5 C7 5.66 7 6.32 7 7 C7.5775 7.2475 8.155 7.495 8.75 7.75 C11.3002997 9.16683317 13.01785701 10.87627537 15 13 C14.01 13.66 13.02 14.32 12 15 C11.46890625 14.31292969 10.9378125 13.62585938 10.390625 12.91796875 C9.68421875 12.01691406 8.9778125 11.11585938 8.25 10.1875 C7.55390625 9.29417969 6.8578125 8.40085938 6.140625 7.48046875 C4.12847738 4.97030485 4.12847738 4.97030485 1.734375 3.30078125 C1.16203125 2.87152344 0.5896875 2.44226563 0 2 C0 1.34 0 0.68 0 0 Z " fill="#303030" transform="translate(130,130)"/>
<path d="M0 0 C2.88437779 1.29299694 4.87219421 2.65941363 7 5 C3.95786733 6.52106634 0.71952428 6.37429338 -2.625 6.5625 C-3.33140625 6.60568359 -4.0378125 6.64886719 -4.765625 6.69335938 C-6.51018537 6.79944751 -8.25506697 6.90022889 -10 7 C-9.67 6.34 -9.34 5.68 -9 5 C-6.49609375 4.5859375 -6.49609375 4.5859375 -3.4375 4.375 C-2.42558594 4.30023438 -1.41367188 4.22546875 -0.37109375 4.1484375 C0.41136719 4.09945313 1.19382812 4.05046875 2 4 C1.34 2.68 0.68 1.36 0 0 Z " fill="#454545" transform="translate(104,359)"/>
<path d="M0 0 C-2.40545638 1.20272819 -3.94996953 1.10071472 -6.625 1.0625 C-7.85089844 1.04896484 -7.85089844 1.04896484 -9.1015625 1.03515625 C-10.04128906 1.01775391 -10.04128906 1.01775391 -11 1 C-11 1.99 -11 2.98 -11 4 C-13.5 5.6875 -13.5 5.6875 -16 7 C-15.67 6.01 -15.34 5.02 -15 4 C-15.99 3.01 -16.98 2.02 -18 1 C-15.56348622 0.63737003 -13.12623023 0.28461036 -10.6875 -0.0625 C-9.99720703 -0.16626953 -9.30691406 -0.27003906 -8.59570312 -0.37695312 C-5.30415164 -0.83808836 -3.19783876 -1.06594625 0 0 Z " fill="#4A4A4A" transform="translate(280,399)"/>
<path d="M0 0 C0.33 0.99 0.66 1.98 1 3 C-2.3 6.3 -5.6 9.6 -9 13 C-9.33 12.01 -9.66 11.02 -10 10 C-6.7 6.7 -3.4 3.4 0 0 Z " fill="#191919" transform="translate(93,321)"/>
<path d="M0 0 C0.99 0.33 1.98 0.66 3 1 C3 1.66 3 2.32 3 3 C3.66 3 4.32 3 5 3 C5 3.66 5 4.32 5 5 C5.66 5 6.32 5 7 5 C7 5.66 7 6.32 7 7 C7.66 7 8.32 7 9 7 C9 7.66 9 8.32 9 9 C9.66 9 10.32 9 11 9 C11 9.66 11 10.32 11 11 C9.68 10.67 8.36 10.34 7 10 C7 9.34 7 8.68 7 8 C6.01 8 5.02 8 4 8 C4 7.01 4 6.02 4 5 C2.68 4.34 1.36 3.68 0 3 C0 2.01 0 1.02 0 0 Z " fill="#6C6C6C" transform="translate(372,116)"/>
<path d="M0 0 C0 4.10292897 -1.62801099 5.1527059 -4.375 8.125 C-5.18710937 9.01445313 -5.99921875 9.90390625 -6.8359375 10.8203125 C-9 13 -9 13 -11 14 C-10.52590352 9.68269587 -7.96603297 7.66352539 -4.9375 4.75 C-4.01839844 3.85796875 -3.09929687 2.9659375 -2.15234375 2.046875 C-1.44207031 1.37140625 -0.73179687 0.6959375 0 0 Z " fill="#1C1C1C" transform="translate(329,85)"/>
<path d="M0 0 C2.64 0.99 5.28 1.98 8 3 C7 6 7 6 5.0625 7.0625 C4.381875 7.371875 3.70125 7.68125 3 8 C2.34 8.66 1.68 9.32 1 10 C0.01 9.67 -0.98 9.34 -2 9 C-1.0409375 8.1028125 -1.0409375 8.1028125 -0.0625 7.1875 C2.20310389 5.09189663 2.20310389 5.09189663 3 2 C2.01 2 1.02 2 0 2 C0 1.34 0 0.68 0 0 Z " fill="#353535" transform="translate(347,60)"/>
<path d="M0 0 C-0.2475 0.721875 -0.495 1.44375 -0.75 2.1875 C-1.31737069 5.1794348 -1.31737069 5.1794348 0.9375 7.8125 C1.618125 8.534375 2.29875 9.25625 3 10 C2.01 10.495 2.01 10.495 1 11 C-0.5 9.625 -0.5 9.625 -2 8 C-2 7.34 -2 6.68 -2 6 C-2.99 5.67 -3.98 5.34 -5 5 C-5 4.34 -5 3.68 -5 3 C-5.66 2.67 -6.32 2.34 -7 2 C-2.25 0 -2.25 0 0 0 Z " fill="#373737" transform="translate(311,388)"/>
<path d="M0 0 C0 3 0 3 -1.96875 5.26171875 C-2.8040625 6.06222656 -3.639375 6.86273438 -4.5 7.6875 C-5.3353125 8.49574219 -6.170625 9.30398438 -7.03125 10.13671875 C-7.6809375 10.75160156 -8.330625 11.36648438 -9 12 C-9.66 11.34 -10.32 10.68 -11 10 C-6.375 5.125 -6.375 5.125 -3 4 C-2.67 3.01 -2.34 2.02 -2 1 C-1.34 0.67 -0.68 0.34 0 0 Z " fill="#292929" transform="translate(140,359)"/>
<path d="M0 0 C0.33 1.32 0.66 2.64 1 4 C2.65 3.34 4.3 2.68 6 2 C4.625 4 4.625 4 3 6 C2.34 6 1.68 6 1 6 C0.566875 6.928125 0.566875 6.928125 0.125 7.875 C-1 10 -1 10 -3 12 C-3.99 11.67 -4.98 11.34 -6 11 C-5.195625 10.484375 -4.39125 9.96875 -3.5625 9.4375 C-0.33552922 6.36794243 -0.25103743 4.35131541 0 0 Z " fill="#3D3D3D" transform="translate(136,102)"/>
<path d="M0 0 C0.33 0.66 0.66 1.32 1 2 C0.67 2.66 0.34 3.32 0 4 C0.598125 4.2475 1.19625 4.495 1.8125 4.75 C4.28647521 6.16370012 5.43370255 7.65055383 7 10 C6.01 10.495 6.01 10.495 5 11 C3.824375 9.7934375 3.824375 9.7934375 2.625 8.5625 C0.28017144 6.01309583 0.28017144 6.01309583 -2 5 C-2 5.99 -2 6.98 -2 8 C-2.66 7.67 -3.32 7.34 -4 7 C-2.68 4.69 -1.36 2.38 0 0 Z " fill="#404040" transform="translate(64,145)"/>
<path d="M0 0 C1.32 0.33 2.64 0.66 4 1 C2.35 2.98 0.7 4.96 -1 7 C-2.32 6.67 -3.64 6.34 -5 6 C-3.35 4.02 -1.7 2.04 0 0 Z " fill="#222222" transform="translate(331,422)"/>
<path d="M0 0 C0.66 1.32 1.32 2.64 2 4 C1.236875 4.598125 0.47375 5.19625 -0.3125 5.8125 C-2.3483575 7.46959332 -4.1978279 9.10297674 -6 11 C-6.66 10.67 -7.32 10.34 -8 10 C-7.21654285 8.82780457 -6.42297164 7.66236332 -5.625 6.5 C-5.18414062 5.8503125 -4.74328125 5.200625 -4.2890625 4.53125 C-3.86367188 4.0259375 -3.43828125 3.520625 -3 3 C-2.34 3 -1.68 3 -1 3 C-0.67 2.01 -0.34 1.02 0 0 Z " fill="#353535" transform="translate(372,338)"/>
<path d="M0 0 C-0.226875 0.9075 -0.45375 1.815 -0.6875 2.75 C-1.32605545 5.99503501 -1.32605545 5.99503501 0.4375 8.375 C0.953125 8.91125 1.46875 9.4475 2 10 C-0.94956528 8.63055898 -3.52468811 7.12169591 -6 5 C-6 4.34 -6 3.68 -6 3 C-2.53846154 0 -2.53846154 0 0 0 Z " fill="#393939" transform="translate(332,69)"/>
<path d="M0 0 C0.66 0 1.32 0 2 0 C1.34 5.28 0.68 10.56 0 16 C-0.33 16 -0.66 16 -1 16 C-1.02685095 13.52076199 -1.04676547 11.0418116 -1.0625 8.5625 C-1.07506836 7.50192383 -1.07506836 7.50192383 -1.08789062 6.41992188 C-1.09653588 4.61306441 -1.05220011 2.80612397 -1 1 C-0.67 0.67 -0.34 0.34 0 0 Z " fill="#626262" transform="translate(101,219)"/>
<path d="M0 0 C0.33 0.66 0.66 1.32 1 2 C0.34 2 -0.32 2 -1 2 C-1.268125 2.639375 -1.53625 3.27875 -1.8125 3.9375 C-3 6 -3 6 -6 7 C-6.33 7.66 -6.66 8.32 -7 9 C-7.33 7.35 -7.66 5.7 -8 4 C-6.68 4.33 -5.36 4.66 -4 5 C-4 4.01 -4 3.02 -4 2 C-2.68 1.34 -1.36 0.68 0 0 Z " fill="#333333" transform="translate(397,187)"/>
<path d="M0 0 C2.96175123 0.61277612 4.38058783 1.25372522 7 3 C5.9275 3.103125 4.855 3.20625 3.75 3.3125 C0.14179128 3.97400493 -1.36395023 4.57483421 -4 7 C-2.79618552 4.50638429 -1.54571278 2.31856917 0 0 Z " fill="#414141" transform="translate(440,227)"/>
<path d="M0 0 C3.3 0.33 6.6 0.66 10 1 C8.02 1.99 8.02 1.99 6 3 C6.66 4.32 7.32 5.64 8 7 C6.2925002 5.71937515 4.62626404 4.38232443 3 3 C3 2.34 3 1.68 3 1 C2.01 0.67 1.02 0.34 0 0 Z " fill="#646464" transform="translate(228,399)"/>
<path d="M0 0 C-4.30769231 3.07692308 -4.30769231 3.07692308 -7.8125 2.6875 C-8.534375 2.460625 -9.25625 2.23375 -10 2 C-6.19832777 -0.53444815 -4.31588991 -1.33941411 0 0 Z " fill="#404040" transform="translate(219,72)"/>
<path d="M0 0 C-3.2678206 2.17854707 -6.38058265 3.49760034 -10 5 C-10 4.01 -10 3.02 -10 2 C-6.5980513 -0.09350689 -3.94727588 -0.17942163 0 0 Z " fill="#454545" transform="translate(192,111)"/>
<path d="M0 0 C0.33 0.99 0.66 1.98 1 3 C4.3 3 7.6 3 11 3 C11 3.33 11 3.66 11 4 C6.71 4 2.42 4 -2 4 C-1.34 2.68 -0.68 1.36 0 0 Z " fill="#404040" transform="translate(233,96)"/>
<path d="M0 0 C1.2890625 1.53125 1.2890625 1.53125 2.625 3.5 C3.07101563 4.1496875 3.51703125 4.799375 3.9765625 5.46875 C4.31429687 5.9740625 4.65203125 6.479375 5 7 C4.01 7.495 4.01 7.495 3 8 C0.66666667 5.66666667 -1.66666667 3.33333333 -4 1 C-2 0 -2 0 0 0 Z " fill="#383838" transform="translate(60,227)"/>
<path d="M0 0 C2.2636564 1.40445835 4.0208685 3.1967913 6 5 C5.67 5.66 5.34 6.32 5 7 C3 5.625 3 5.625 1 4 C1 3.34 1 2.68 1 2 C-0.32 1.67 -1.64 1.34 -3 1 C-2.01 0.67 -1.02 0.34 0 0 Z " fill="#252525" transform="translate(251,420)"/>
<path d="M0 0 C0.66 0.99 1.32 1.98 2 3 C1.34 3.66 0.68 4.32 0 5 C-0.70710678 6.64991582 -1.37943989 8.31562256 -2 10 C-2.66 10 -3.32 10 -4 10 C-2.8905928 6.51329166 -1.73662334 3.22515763 0 0 Z " fill="#5E5E5E" transform="translate(384,317)"/>
<path d="M0 0 C3.40320742 1.01176437 4.75725331 1.64843582 6.8125 4.625 C7.204375 5.40875 7.59625 6.1925 8 7 C4.63718422 5.55879324 2.4480582 3.71035015 0 1 C0 0.67 0 0.34 0 0 Z " fill="#252525" transform="translate(420,251)"/>
<path d="M0 0 C0.99 0.33 1.98 0.66 3 1 C0.03 3.475 0.03 3.475 -3 6 C-2.42655063 3.13275314 -2.1385485 2.1385485 0 0 Z " fill="#171717" transform="translate(237,92)"/>
</svg>
